<mxfile host="Electron" modified="2024-09-13T10:45:56.692Z" agent="Mozilla/5.0 (Macintosh; Intel Mac OS X 10_15_7) AppleWebKit/537.36 (KHTML, like Gecko) draw.io/24.4.0 Chrome/120.0.6099.109 Electron/28.1.0 Safari/537.36" etag="O1P0xLi0XKnUTF-pSkVn" version="24.4.0" type="device" pages="8">
  <diagram name="Use case diagram" id="4jNnSHr2j0zC8i6yf4AK">
    <mxGraphModel dx="1646" dy="933" grid="1" gridSize="10" guides="1" tooltips="1" connect="1" arrows="1" fold="1" page="1" pageScale="1" pageWidth="827" pageHeight="1169" math="0" shadow="0">
      <root>
        <mxCell id="0" />
        <mxCell id="1" parent="0" />
        <mxCell id="P25QqLly6whXgiICaYZN-23" value="" style="rounded=0;whiteSpace=wrap;html=1;" parent="1" vertex="1">
          <mxGeometry x="170" y="90" width="440" height="450" as="geometry" />
        </mxCell>
        <mxCell id="P25QqLly6whXgiICaYZN-2" value="Korisnik" style="shape=umlActor;verticalLabelPosition=bottom;verticalAlign=top;html=1;outlineConnect=0;" parent="1" vertex="1">
          <mxGeometry x="80" y="300" width="40" height="80" as="geometry" />
        </mxCell>
        <mxCell id="P25QqLly6whXgiICaYZN-4" value="Učitavanje&lt;div&gt;fotografije&lt;/div&gt;" style="ellipse;whiteSpace=wrap;html=1;" parent="1" vertex="1">
          <mxGeometry x="270" y="150" width="120" height="60" as="geometry" />
        </mxCell>
        <mxCell id="P25QqLly6whXgiICaYZN-7" value="Analiza&lt;br&gt;fotografije" style="ellipse;whiteSpace=wrap;html=1;" parent="1" vertex="1">
          <mxGeometry x="270" y="310" width="120" height="60" as="geometry" />
        </mxCell>
        <mxCell id="P25QqLly6whXgiICaYZN-8" value="Izlaz iz&lt;div&gt;aplikacije&lt;/div&gt;" style="ellipse;whiteSpace=wrap;html=1;" parent="1" vertex="1">
          <mxGeometry x="270" y="440" width="120" height="60" as="geometry" />
        </mxCell>
        <mxCell id="P25QqLly6whXgiICaYZN-13" value="Prikaz&lt;div&gt;fotografije&lt;/div&gt;" style="ellipse;whiteSpace=wrap;html=1;" parent="1" vertex="1">
          <mxGeometry x="460" y="230" width="120" height="60" as="geometry" />
        </mxCell>
        <mxCell id="P25QqLly6whXgiICaYZN-14" value="" style="endArrow=none;html=1;rounded=0;entryX=0;entryY=0.5;entryDx=0;entryDy=0;" parent="1" target="P25QqLly6whXgiICaYZN-4" edge="1">
          <mxGeometry width="50" height="50" relative="1" as="geometry">
            <mxPoint x="130" y="320" as="sourcePoint" />
            <mxPoint x="280" y="250" as="targetPoint" />
          </mxGeometry>
        </mxCell>
        <mxCell id="P25QqLly6whXgiICaYZN-15" value="" style="endArrow=none;html=1;rounded=0;entryX=0;entryY=0.5;entryDx=0;entryDy=0;" parent="1" target="P25QqLly6whXgiICaYZN-7" edge="1">
          <mxGeometry width="50" height="50" relative="1" as="geometry">
            <mxPoint x="130" y="330" as="sourcePoint" />
            <mxPoint x="280" y="350" as="targetPoint" />
          </mxGeometry>
        </mxCell>
        <mxCell id="P25QqLly6whXgiICaYZN-16" value="" style="endArrow=none;html=1;rounded=0;exitX=0;exitY=0.5;exitDx=0;exitDy=0;" parent="1" source="P25QqLly6whXgiICaYZN-8" edge="1">
          <mxGeometry width="50" height="50" relative="1" as="geometry">
            <mxPoint x="390" y="390" as="sourcePoint" />
            <mxPoint x="130" y="340" as="targetPoint" />
          </mxGeometry>
        </mxCell>
        <mxCell id="P25QqLly6whXgiICaYZN-18" value="" style="endArrow=classic;html=1;rounded=0;entryX=1;entryY=0.5;entryDx=0;entryDy=0;exitX=0;exitY=0;exitDx=0;exitDy=0;" parent="1" source="P25QqLly6whXgiICaYZN-13" target="P25QqLly6whXgiICaYZN-4" edge="1">
          <mxGeometry width="50" height="50" relative="1" as="geometry">
            <mxPoint x="390" y="390" as="sourcePoint" />
            <mxPoint x="440" y="340" as="targetPoint" />
          </mxGeometry>
        </mxCell>
        <mxCell id="P25QqLly6whXgiICaYZN-19" value="" style="endArrow=classic;html=1;rounded=0;exitX=0;exitY=1;exitDx=0;exitDy=0;entryX=1;entryY=0.5;entryDx=0;entryDy=0;" parent="1" source="P25QqLly6whXgiICaYZN-13" target="P25QqLly6whXgiICaYZN-7" edge="1">
          <mxGeometry width="50" height="50" relative="1" as="geometry">
            <mxPoint x="390" y="390" as="sourcePoint" />
            <mxPoint x="440" y="340" as="targetPoint" />
          </mxGeometry>
        </mxCell>
        <mxCell id="P25QqLly6whXgiICaYZN-21" value="" style="endArrow=open;endSize=12;dashed=1;html=1;rounded=0;entryX=0.5;entryY=0;entryDx=0;entryDy=0;exitX=0.5;exitY=1;exitDx=0;exitDy=0;" parent="1" source="P25QqLly6whXgiICaYZN-4" target="P25QqLly6whXgiICaYZN-7" edge="1">
          <mxGeometry width="160" relative="1" as="geometry">
            <mxPoint x="334" y="280" as="sourcePoint" />
            <mxPoint x="494" y="280" as="targetPoint" />
          </mxGeometry>
        </mxCell>
        <mxCell id="P25QqLly6whXgiICaYZN-22" value="&amp;lt;&amp;lt; extends &amp;gt;&amp;gt;" style="edgeLabel;html=1;align=center;verticalAlign=middle;resizable=0;points=[];" parent="P25QqLly6whXgiICaYZN-21" vertex="1" connectable="0">
          <mxGeometry x="-0.1548" relative="1" as="geometry">
            <mxPoint as="offset" />
          </mxGeometry>
        </mxCell>
        <mxCell id="P25QqLly6whXgiICaYZN-25" value="Aplikacija" style="text;html=1;align=center;verticalAlign=middle;whiteSpace=wrap;rounded=0;" parent="1" vertex="1">
          <mxGeometry x="357.5" y="100" width="65" height="30" as="geometry" />
        </mxCell>
        <mxCell id="MCmazxJgtNk-IgUDyf3L-1" value="" style="rounded=0;whiteSpace=wrap;html=1;fillColor=none;strokeColor=none;" vertex="1" parent="1">
          <mxGeometry x="40" y="55" width="600" height="520" as="geometry" />
        </mxCell>
      </root>
    </mxGraphModel>
  </diagram>
  <diagram id="Xr8w60KJECK8BeRzlasY" name="sequence diagram - pokretanje i izlazak">
    <mxGraphModel dx="2473" dy="2102" grid="1" gridSize="10" guides="1" tooltips="1" connect="1" arrows="1" fold="1" page="1" pageScale="1" pageWidth="827" pageHeight="1169" math="0" shadow="0">
      <root>
        <mxCell id="0" />
        <mxCell id="1" parent="0" />
        <mxCell id="dOpOfz1vLFzTmDAA3g3N-1" value="Korisnik" style="shape=umlLifeline;perimeter=lifelinePerimeter;whiteSpace=wrap;html=1;container=1;dropTarget=0;collapsible=0;recursiveResize=0;outlineConnect=0;portConstraint=eastwest;newEdgeStyle={&quot;curved&quot;:0,&quot;rounded&quot;:0};" parent="1" vertex="1">
          <mxGeometry y="40" width="120" height="860" as="geometry" />
        </mxCell>
        <mxCell id="dt-qGcbIqvT0eRzoAeQn-1" value="Model" style="shape=umlLifeline;perimeter=lifelinePerimeter;whiteSpace=wrap;html=1;container=1;dropTarget=0;collapsible=0;recursiveResize=0;outlineConnect=0;portConstraint=eastwest;newEdgeStyle={&quot;curved&quot;:0,&quot;rounded&quot;:0};" parent="1" vertex="1">
          <mxGeometry x="880" y="160" width="120" height="660" as="geometry" />
        </mxCell>
        <mxCell id="dt-qGcbIqvT0eRzoAeQn-57" value="" style="html=1;points=[[0,0,0,0,5],[0,1,0,0,-5],[1,0,0,0,5],[1,1,0,0,-5]];perimeter=orthogonalPerimeter;outlineConnect=0;targetShapes=umlLifeline;portConstraint=eastwest;newEdgeStyle={&quot;curved&quot;:0,&quot;rounded&quot;:0};" parent="dt-qGcbIqvT0eRzoAeQn-1" vertex="1">
          <mxGeometry x="55" y="60" width="10" height="470" as="geometry" />
        </mxCell>
        <mxCell id="dsZ-IPraKD0lQCrrytZ1-7" value="__build_model()" style="html=1;align=left;spacingLeft=2;endArrow=block;rounded=0;edgeStyle=orthogonalEdgeStyle;curved=0;rounded=0;" parent="dt-qGcbIqvT0eRzoAeQn-1" target="dt-qGcbIqvT0eRzoAeQn-57" edge="1">
          <mxGeometry x="0.0009" relative="1" as="geometry">
            <mxPoint x="65" y="160" as="sourcePoint" />
            <Array as="points">
              <mxPoint x="65" y="170" />
              <mxPoint x="95" y="170" />
              <mxPoint x="95" y="200" />
            </Array>
            <mxPoint as="offset" />
            <mxPoint x="70" y="189.99999999999955" as="targetPoint" />
          </mxGeometry>
        </mxCell>
        <mxCell id="dsZ-IPraKD0lQCrrytZ1-4" value="&lt;div&gt;load_model(&#39;training.keras&#39;)&lt;br&gt;&lt;/div&gt;" style="html=1;align=left;spacingLeft=2;endArrow=block;rounded=0;edgeStyle=orthogonalEdgeStyle;curved=0;rounded=0;" parent="dt-qGcbIqvT0eRzoAeQn-1" target="dt-qGcbIqvT0eRzoAeQn-57" edge="1">
          <mxGeometry x="-0.0017" relative="1" as="geometry">
            <mxPoint x="65" y="120" as="sourcePoint" />
            <Array as="points">
              <mxPoint x="95" y="120" />
              <mxPoint x="95" y="150" />
            </Array>
            <mxPoint as="offset" />
            <mxPoint x="70" y="140" as="targetPoint" />
          </mxGeometry>
        </mxCell>
        <mxCell id="dsZ-IPraKD0lQCrrytZ1-12" value="" style="html=1;points=[[0,0,0,0,5],[0,1,0,0,-5],[1,0,0,0,5],[1,1,0,0,-5]];perimeter=orthogonalPerimeter;outlineConnect=0;targetShapes=umlLifeline;portConstraint=eastwest;newEdgeStyle={&quot;curved&quot;:0,&quot;rounded&quot;:0};" parent="dt-qGcbIqvT0eRzoAeQn-1" vertex="1">
          <mxGeometry x="60" y="230" width="20" height="70" as="geometry" />
        </mxCell>
        <mxCell id="dsZ-IPraKD0lQCrrytZ1-13" value="__training()" style="html=1;align=left;spacingLeft=2;endArrow=block;rounded=0;edgeStyle=orthogonalEdgeStyle;curved=0;rounded=0;" parent="dt-qGcbIqvT0eRzoAeQn-1" target="dsZ-IPraKD0lQCrrytZ1-12" edge="1">
          <mxGeometry x="0.0009" relative="1" as="geometry">
            <mxPoint x="65" y="210" as="sourcePoint" />
            <Array as="points">
              <mxPoint x="95" y="210" />
              <mxPoint x="95" y="230" />
            </Array>
            <mxPoint as="offset" />
          </mxGeometry>
        </mxCell>
        <mxCell id="dsZ-IPraKD0lQCrrytZ1-32" value="&lt;div&gt;__predict()&lt;/div&gt;" style="html=1;align=left;spacingLeft=2;endArrow=block;rounded=0;edgeStyle=orthogonalEdgeStyle;curved=0;rounded=0;" parent="dt-qGcbIqvT0eRzoAeQn-1" edge="1">
          <mxGeometry x="-0.0006" relative="1" as="geometry">
            <mxPoint x="65" y="490" as="sourcePoint" />
            <Array as="points">
              <mxPoint x="95" y="490" />
              <mxPoint x="95" y="510" />
            </Array>
            <mxPoint as="offset" />
            <mxPoint x="65" y="510" as="targetPoint" />
          </mxGeometry>
        </mxCell>
        <mxCell id="dsZ-IPraKD0lQCrrytZ1-33" value="" style="html=1;points=[[0,0,0,0,5],[0,1,0,0,-5],[1,0,0,0,5],[1,1,0,0,-5]];perimeter=orthogonalPerimeter;outlineConnect=0;targetShapes=umlLifeline;portConstraint=eastwest;newEdgeStyle={&quot;curved&quot;:0,&quot;rounded&quot;:0};" parent="dt-qGcbIqvT0eRzoAeQn-1" vertex="1">
          <mxGeometry x="60" y="500" width="10" height="20" as="geometry" />
        </mxCell>
        <mxCell id="dt-qGcbIqvT0eRzoAeQn-18" value="Queue" style="shape=umlLifeline;perimeter=lifelinePerimeter;whiteSpace=wrap;html=1;container=1;dropTarget=0;collapsible=0;recursiveResize=0;outlineConnect=0;portConstraint=eastwest;newEdgeStyle={&quot;curved&quot;:0,&quot;rounded&quot;:0};" parent="1" vertex="1">
          <mxGeometry x="640" y="80" width="120" height="780" as="geometry" />
        </mxCell>
        <mxCell id="dOpOfz1vLFzTmDAA3g3N-4" value="Interface" style="shape=umlLifeline;perimeter=lifelinePerimeter;whiteSpace=wrap;html=1;container=1;dropTarget=0;collapsible=0;recursiveResize=0;outlineConnect=0;portConstraint=eastwest;newEdgeStyle={&quot;curved&quot;:0,&quot;rounded&quot;:0};" parent="1" vertex="1">
          <mxGeometry x="400" y="120" width="120" height="690" as="geometry" />
        </mxCell>
        <mxCell id="J8gR3V7ayA8lsjcPRTFk-8" value="" style="shape=umlDestroy;whiteSpace=wrap;html=1;strokeWidth=3;targetShapes=umlLifeline;" parent="dOpOfz1vLFzTmDAA3g3N-4" vertex="1">
          <mxGeometry x="50" y="680" width="20" height="20" as="geometry" />
        </mxCell>
        <mxCell id="dt-qGcbIqvT0eRzoAeQn-44" value="" style="endArrow=classic;html=1;rounded=0;" parent="1" edge="1">
          <mxGeometry width="50" height="50" relative="1" as="geometry">
            <mxPoint x="259.9957142857145" y="100.00000000000023" as="sourcePoint" />
            <mxPoint x="640" y="100" as="targetPoint" />
          </mxGeometry>
        </mxCell>
        <mxCell id="dt-qGcbIqvT0eRzoAeQn-47" value="&amp;lt;&amp;lt; create &amp;gt;&amp;gt;" style="edgeLabel;html=1;align=center;verticalAlign=middle;resizable=0;points=[];" parent="dt-qGcbIqvT0eRzoAeQn-44" vertex="1" connectable="0">
          <mxGeometry x="-0.0009" y="1" relative="1" as="geometry">
            <mxPoint as="offset" />
          </mxGeometry>
        </mxCell>
        <mxCell id="dt-qGcbIqvT0eRzoAeQn-45" value="" style="endArrow=classic;html=1;rounded=0;" parent="1" edge="1">
          <mxGeometry width="50" height="50" relative="1" as="geometry">
            <mxPoint x="261" y="140" as="sourcePoint" />
            <mxPoint x="400" y="140" as="targetPoint" />
          </mxGeometry>
        </mxCell>
        <mxCell id="dt-qGcbIqvT0eRzoAeQn-48" value="&amp;lt;&amp;lt; create &amp;gt;&amp;gt;" style="edgeLabel;html=1;align=center;verticalAlign=middle;resizable=0;points=[];" parent="dt-qGcbIqvT0eRzoAeQn-45" vertex="1" connectable="0">
          <mxGeometry x="-0.0002" y="-1" relative="1" as="geometry">
            <mxPoint y="-2" as="offset" />
          </mxGeometry>
        </mxCell>
        <mxCell id="dOpOfz1vLFzTmDAA3g3N-3" value="Main" style="shape=umlLifeline;perimeter=lifelinePerimeter;whiteSpace=wrap;html=1;container=1;dropTarget=0;collapsible=0;recursiveResize=0;outlineConnect=0;portConstraint=eastwest;newEdgeStyle={&quot;curved&quot;:0,&quot;rounded&quot;:0};" parent="1" vertex="1">
          <mxGeometry x="200" y="40" width="120" height="840" as="geometry" />
        </mxCell>
        <mxCell id="dt-qGcbIqvT0eRzoAeQn-43" value="" style="html=1;points=[[0,0,0,0,5],[0,1,0,0,-5],[1,0,0,0,5],[1,1,0,0,-5]];perimeter=orthogonalPerimeter;outlineConnect=0;targetShapes=umlLifeline;portConstraint=eastwest;newEdgeStyle={&quot;curved&quot;:0,&quot;rounded&quot;:0};" parent="dOpOfz1vLFzTmDAA3g3N-3" vertex="1">
          <mxGeometry x="55" y="60" width="10" height="160" as="geometry" />
        </mxCell>
        <mxCell id="dt-qGcbIqvT0eRzoAeQn-41" value="" style="endArrow=classic;html=1;rounded=0;" parent="1" edge="1">
          <mxGeometry width="50" height="50" relative="1" as="geometry">
            <mxPoint x="59.59090909090901" y="100" as="sourcePoint" />
            <mxPoint x="259.5" y="100" as="targetPoint" />
          </mxGeometry>
        </mxCell>
        <mxCell id="dt-qGcbIqvT0eRzoAeQn-42" value="Pokretanje aplikacije" style="edgeLabel;html=1;align=center;verticalAlign=middle;resizable=0;points=[];" parent="dt-qGcbIqvT0eRzoAeQn-41" vertex="1" connectable="0">
          <mxGeometry x="-0.0036" y="2" relative="1" as="geometry">
            <mxPoint y="1" as="offset" />
          </mxGeometry>
        </mxCell>
        <mxCell id="dt-qGcbIqvT0eRzoAeQn-55" value="" style="endArrow=classic;html=1;rounded=0;" parent="1" source="dt-qGcbIqvT0eRzoAeQn-43" target="dsZ-IPraKD0lQCrrytZ1-38" edge="1">
          <mxGeometry width="50" height="50" relative="1" as="geometry">
            <mxPoint x="260" y="260" as="sourcePoint" />
            <mxPoint x="455" y="260" as="targetPoint" />
            <Array as="points">
              <mxPoint x="315" y="260" />
            </Array>
          </mxGeometry>
        </mxCell>
        <mxCell id="dt-qGcbIqvT0eRzoAeQn-56" value="run()" style="edgeLabel;html=1;align=center;verticalAlign=middle;resizable=0;points=[];" parent="dt-qGcbIqvT0eRzoAeQn-55" vertex="1" connectable="0">
          <mxGeometry x="-0.0393" relative="1" as="geometry">
            <mxPoint as="offset" />
          </mxGeometry>
        </mxCell>
        <mxCell id="VcjHCvIWC9UtbydRh7yV-1" value="pokretanje i izlazak iz aplikacije" style="shape=umlFrame;whiteSpace=wrap;html=1;pointerEvents=0;width=240;height=40;" parent="1" vertex="1">
          <mxGeometry x="-20" y="-20" width="1200" height="920" as="geometry" />
        </mxCell>
        <mxCell id="dsZ-IPraKD0lQCrrytZ1-2" value="alt" style="shape=umlFrame;whiteSpace=wrap;html=1;pointerEvents=0;width=60;height=30;" parent="1" vertex="1">
          <mxGeometry x="760" y="230" width="400" height="240" as="geometry" />
        </mxCell>
        <mxCell id="dsZ-IPraKD0lQCrrytZ1-8" value="" style="endArrow=none;dashed=1;html=1;rounded=0;exitX=-0.005;exitY=0.347;exitDx=0;exitDy=0;exitPerimeter=0;" parent="1" target="dsZ-IPraKD0lQCrrytZ1-2" edge="1">
          <mxGeometry width="50" height="50" relative="1" as="geometry">
            <mxPoint x="760.0000000000002" y="340.26000000000005" as="sourcePoint" />
            <mxPoint x="1101.7" y="340.00000000000006" as="targetPoint" />
          </mxGeometry>
        </mxCell>
        <mxCell id="dsZ-IPraKD0lQCrrytZ1-16" value="" style="endArrow=none;dashed=1;html=1;rounded=0;" parent="1" edge="1">
          <mxGeometry width="50" height="50" relative="1" as="geometry">
            <mxPoint x="1160" y="320" as="sourcePoint" />
            <mxPoint x="760" y="320" as="targetPoint" />
          </mxGeometry>
        </mxCell>
        <mxCell id="dsZ-IPraKD0lQCrrytZ1-19" value="loop" style="shape=umlFrame;whiteSpace=wrap;html=1;pointerEvents=0;width=60;height=30;" parent="1" vertex="1">
          <mxGeometry x="760" y="470" width="400" height="280" as="geometry" />
        </mxCell>
        <mxCell id="dsZ-IPraKD0lQCrrytZ1-21" value="[else]" style="text;html=1;align=left;verticalAlign=middle;whiteSpace=wrap;rounded=0;" parent="1" vertex="1">
          <mxGeometry x="767" y="320" width="60" height="30" as="geometry" />
        </mxCell>
        <mxCell id="dsZ-IPraKD0lQCrrytZ1-22" value="[os.path.exists(&#39;training.keras&#39;)]" style="text;html=1;align=left;verticalAlign=middle;whiteSpace=wrap;rounded=0;" parent="1" vertex="1">
          <mxGeometry x="767" y="260" width="181" height="30" as="geometry" />
        </mxCell>
        <mxCell id="dsZ-IPraKD0lQCrrytZ1-23" value="[True]" style="text;html=1;align=left;verticalAlign=middle;whiteSpace=wrap;rounded=0;" parent="1" vertex="1">
          <mxGeometry x="767" y="500" width="60" height="30" as="geometry" />
        </mxCell>
        <mxCell id="dsZ-IPraKD0lQCrrytZ1-24" value="alt" style="shape=umlFrame;whiteSpace=wrap;html=1;pointerEvents=0;width=60;height=30;" parent="1" vertex="1">
          <mxGeometry x="820" y="520" width="300" height="210" as="geometry" />
        </mxCell>
        <mxCell id="dsZ-IPraKD0lQCrrytZ1-25" value="[self.__is_ready]" style="text;html=1;align=left;verticalAlign=middle;whiteSpace=wrap;rounded=0;" parent="1" vertex="1">
          <mxGeometry x="827" y="550" width="60" height="30" as="geometry" />
        </mxCell>
        <mxCell id="dsZ-IPraKD0lQCrrytZ1-26" value="" style="endArrow=classic;html=1;rounded=0;" parent="1" edge="1">
          <mxGeometry width="50" height="50" relative="1" as="geometry">
            <mxPoint x="935" y="600" as="sourcePoint" />
            <mxPoint x="699.9871794871797" y="600" as="targetPoint" />
          </mxGeometry>
        </mxCell>
        <mxCell id="dsZ-IPraKD0lQCrrytZ1-27" value="&amp;lt;&amp;lt; async &amp;gt;&amp;gt;&amp;nbsp;&lt;div&gt;get()&lt;/div&gt;" style="edgeLabel;html=1;align=center;verticalAlign=middle;resizable=0;points=[];" parent="dsZ-IPraKD0lQCrrytZ1-26" vertex="1" connectable="0">
          <mxGeometry x="-0.0174" y="-1" relative="1" as="geometry">
            <mxPoint as="offset" />
          </mxGeometry>
        </mxCell>
        <mxCell id="dsZ-IPraKD0lQCrrytZ1-29" value="" style="html=1;verticalAlign=bottom;endArrow=openAsync;dashed=1;endSize=8;curved=0;rounded=0;endFill=0;" parent="1" edge="1">
          <mxGeometry relative="1" as="geometry">
            <mxPoint x="699.9871794871797" y="640" as="sourcePoint" />
            <mxPoint x="935" y="640" as="targetPoint" />
          </mxGeometry>
        </mxCell>
        <mxCell id="dsZ-IPraKD0lQCrrytZ1-31" value="&amp;lt;&amp;lt; async &amp;gt;&amp;gt;&lt;div&gt;reply&lt;/div&gt;" style="edgeLabel;html=1;align=center;verticalAlign=middle;resizable=0;points=[];" parent="dsZ-IPraKD0lQCrrytZ1-29" vertex="1" connectable="0">
          <mxGeometry x="0.0174" y="1" relative="1" as="geometry">
            <mxPoint as="offset" />
          </mxGeometry>
        </mxCell>
        <mxCell id="dsZ-IPraKD0lQCrrytZ1-34" value="" style="endArrow=classic;html=1;rounded=0;" parent="1" edge="1">
          <mxGeometry width="50" height="50" relative="1" as="geometry">
            <mxPoint x="935" y="690" as="sourcePoint" />
            <mxPoint x="700.0555555555557" y="690" as="targetPoint" />
          </mxGeometry>
        </mxCell>
        <mxCell id="dsZ-IPraKD0lQCrrytZ1-35" value="&amp;lt;&amp;lt; async &amp;gt;&amp;gt;&amp;nbsp;&lt;div&gt;put()&lt;/div&gt;" style="edgeLabel;html=1;align=center;verticalAlign=middle;resizable=0;points=[];" parent="dsZ-IPraKD0lQCrrytZ1-34" vertex="1" connectable="0">
          <mxGeometry x="-0.0174" y="-1" relative="1" as="geometry">
            <mxPoint as="offset" />
          </mxGeometry>
        </mxCell>
        <mxCell id="dsZ-IPraKD0lQCrrytZ1-38" value="" style="html=1;points=[[0,0,0,0,5],[0,1,0,0,-5],[1,0,0,0,5],[1,1,0,0,-5]];perimeter=orthogonalPerimeter;outlineConnect=0;targetShapes=umlLifeline;portConstraint=eastwest;newEdgeStyle={&quot;curved&quot;:0,&quot;rounded&quot;:0};" parent="1" vertex="1">
          <mxGeometry x="455" y="260" width="10" height="510" as="geometry" />
        </mxCell>
        <mxCell id="dt-qGcbIqvT0eRzoAeQn-46" value="" style="endArrow=classic;html=1;rounded=0;" parent="1" source="dt-qGcbIqvT0eRzoAeQn-43" edge="1">
          <mxGeometry width="50" height="50" relative="1" as="geometry">
            <mxPoint x="260" y="180" as="sourcePoint" />
            <mxPoint x="880" y="180" as="targetPoint" />
          </mxGeometry>
        </mxCell>
        <mxCell id="dt-qGcbIqvT0eRzoAeQn-49" value="&amp;lt;&amp;lt; create &amp;gt;&amp;gt;" style="edgeLabel;html=1;align=center;verticalAlign=middle;resizable=0;points=[];" parent="dt-qGcbIqvT0eRzoAeQn-46" vertex="1" connectable="0">
          <mxGeometry x="0.002" y="-1" relative="1" as="geometry">
            <mxPoint y="-2" as="offset" />
          </mxGeometry>
        </mxCell>
        <mxCell id="dt-qGcbIqvT0eRzoAeQn-53" value="" style="endArrow=classic;html=1;rounded=0;" parent="1" edge="1">
          <mxGeometry width="50" height="50" relative="1" as="geometry">
            <mxPoint x="265" y="220" as="sourcePoint" />
            <mxPoint x="937.25" y="220" as="targetPoint" />
          </mxGeometry>
        </mxCell>
        <mxCell id="dt-qGcbIqvT0eRzoAeQn-54" value="run()" style="edgeLabel;html=1;align=center;verticalAlign=middle;resizable=0;points=[];" parent="dt-qGcbIqvT0eRzoAeQn-53" vertex="1" connectable="0">
          <mxGeometry x="-0.0014" y="-1" relative="1" as="geometry">
            <mxPoint y="-2" as="offset" />
          </mxGeometry>
        </mxCell>
        <mxCell id="dsZ-IPraKD0lQCrrytZ1-39" value="" style="endArrow=classic;html=1;rounded=0;" parent="1" target="dsZ-IPraKD0lQCrrytZ1-38" edge="1">
          <mxGeometry width="50" height="50" relative="1" as="geometry">
            <mxPoint x="59.59090909090946" y="770" as="sourcePoint" />
            <mxPoint x="259.5" y="770" as="targetPoint" />
          </mxGeometry>
        </mxCell>
        <mxCell id="dsZ-IPraKD0lQCrrytZ1-40" value="Izlazak iz aplikacije" style="edgeLabel;html=1;align=center;verticalAlign=middle;resizable=0;points=[];" parent="dsZ-IPraKD0lQCrrytZ1-39" vertex="1" connectable="0">
          <mxGeometry x="-0.0236" y="4" relative="1" as="geometry">
            <mxPoint x="3" y="4" as="offset" />
          </mxGeometry>
        </mxCell>
        <mxCell id="J8gR3V7ayA8lsjcPRTFk-1" value="" style="html=1;verticalAlign=bottom;endArrow=open;dashed=1;endSize=8;curved=0;rounded=0;" parent="1" edge="1">
          <mxGeometry relative="1" as="geometry">
            <mxPoint x="455" y="280" as="sourcePoint" />
            <mxPoint x="59.89393939393926" y="280" as="targetPoint" />
          </mxGeometry>
        </mxCell>
        <mxCell id="J8gR3V7ayA8lsjcPRTFk-2" value="Prikaz grafičkog&lt;div&gt;korisničkog prozora&lt;/div&gt;" style="edgeLabel;html=1;align=center;verticalAlign=middle;resizable=0;points=[];" parent="J8gR3V7ayA8lsjcPRTFk-1" vertex="1" connectable="0">
          <mxGeometry x="0.0174" y="1" relative="1" as="geometry">
            <mxPoint as="offset" />
          </mxGeometry>
        </mxCell>
        <mxCell id="J8gR3V7ayA8lsjcPRTFk-4" value="" style="endArrow=classic;html=1;rounded=0;" parent="1" edge="1">
          <mxGeometry width="50" height="50" relative="1" as="geometry">
            <mxPoint x="459.5" y="791" as="sourcePoint" />
            <mxPoint x="259.8548387096773" y="791" as="targetPoint" />
          </mxGeometry>
        </mxCell>
        <mxCell id="J8gR3V7ayA8lsjcPRTFk-5" value="on_close()" style="edgeLabel;html=1;align=center;verticalAlign=middle;resizable=0;points=[];" parent="J8gR3V7ayA8lsjcPRTFk-4" vertex="1" connectable="0">
          <mxGeometry x="-0.0072" y="-1" relative="1" as="geometry">
            <mxPoint as="offset" />
          </mxGeometry>
        </mxCell>
        <mxCell id="J8gR3V7ayA8lsjcPRTFk-6" value="" style="html=1;verticalAlign=bottom;endArrow=open;dashed=1;endSize=8;curved=0;rounded=0;" parent="1" edge="1">
          <mxGeometry relative="1" as="geometry">
            <mxPoint x="260.0454545454545" y="810" as="sourcePoint" />
            <mxPoint x="450" y="810" as="targetPoint" />
          </mxGeometry>
        </mxCell>
        <mxCell id="J8gR3V7ayA8lsjcPRTFk-7" value="&amp;lt;&amp;lt; delete &amp;gt;&amp;gt;" style="edgeLabel;html=1;align=center;verticalAlign=middle;resizable=0;points=[];" parent="J8gR3V7ayA8lsjcPRTFk-6" vertex="1" connectable="0">
          <mxGeometry x="0.0174" y="1" relative="1" as="geometry">
            <mxPoint as="offset" />
          </mxGeometry>
        </mxCell>
        <mxCell id="J8gR3V7ayA8lsjcPRTFk-10" value="" style="endArrow=classic;html=1;rounded=0;" parent="1" edge="1">
          <mxGeometry width="50" height="50" relative="1" as="geometry">
            <mxPoint x="259.89393939393926" y="823" as="sourcePoint" />
            <mxPoint x="930" y="824" as="targetPoint" />
          </mxGeometry>
        </mxCell>
        <mxCell id="J8gR3V7ayA8lsjcPRTFk-11" value="join()" style="edgeLabel;html=1;align=center;verticalAlign=middle;resizable=0;points=[];" parent="J8gR3V7ayA8lsjcPRTFk-10" vertex="1" connectable="0">
          <mxGeometry x="-0.0007" relative="1" as="geometry">
            <mxPoint y="-1" as="offset" />
          </mxGeometry>
        </mxCell>
        <mxCell id="J8gR3V7ayA8lsjcPRTFk-12" value="" style="shape=umlDestroy;whiteSpace=wrap;html=1;strokeWidth=3;targetShapes=umlLifeline;" parent="1" vertex="1">
          <mxGeometry x="930" y="814" width="20" height="20" as="geometry" />
        </mxCell>
        <mxCell id="J8gR3V7ayA8lsjcPRTFk-15" value="" style="endArrow=classic;html=1;rounded=0;" parent="1" edge="1">
          <mxGeometry width="50" height="50" relative="1" as="geometry">
            <mxPoint x="259.81034482758605" y="860" as="sourcePoint" />
            <mxPoint x="690" y="860" as="targetPoint" />
          </mxGeometry>
        </mxCell>
        <mxCell id="J8gR3V7ayA8lsjcPRTFk-16" value="&amp;lt;&amp;lt; delete &amp;gt;&amp;gt;" style="edgeLabel;html=1;align=center;verticalAlign=middle;resizable=0;points=[];" parent="J8gR3V7ayA8lsjcPRTFk-15" vertex="1" connectable="0">
          <mxGeometry x="-0.0038" relative="1" as="geometry">
            <mxPoint y="-1" as="offset" />
          </mxGeometry>
        </mxCell>
        <mxCell id="J8gR3V7ayA8lsjcPRTFk-17" value="" style="shape=umlDestroy;whiteSpace=wrap;html=1;strokeWidth=3;targetShapes=umlLifeline;" parent="1" vertex="1">
          <mxGeometry x="690" y="850" width="20" height="20" as="geometry" />
        </mxCell>
        <mxCell id="J8gR3V7ayA8lsjcPRTFk-18" value="" style="shape=umlDestroy;whiteSpace=wrap;html=1;strokeWidth=3;targetShapes=umlLifeline;" parent="1" vertex="1">
          <mxGeometry x="250" y="870" width="20" height="20" as="geometry" />
        </mxCell>
        <mxCell id="_Fw6s23tj4KpvurcO9bv-2" value="" style="html=1;points=[[0,0,0,0,5],[0,1,0,0,-5],[1,0,0,0,5],[1,1,0,0,-5]];perimeter=orthogonalPerimeter;outlineConnect=0;targetShapes=umlLifeline;portConstraint=eastwest;newEdgeStyle={&quot;curved&quot;:0,&quot;rounded&quot;:0};" parent="1" vertex="1">
          <mxGeometry x="250" y="790" width="10" height="70" as="geometry" />
        </mxCell>
        <mxCell id="_Fw6s23tj4KpvurcO9bv-1" value="par" style="shape=umlFrame;whiteSpace=wrap;html=1;pointerEvents=0;strokeColor=#000000;strokeWidth=3;" parent="1" vertex="1">
          <mxGeometry x="160" y="210" width="1010" height="630" as="geometry" />
        </mxCell>
        <mxCell id="_Fw6s23tj4KpvurcO9bv-3" value="" style="endArrow=none;dashed=1;html=1;rounded=0;strokeColor=#000000;strokeWidth=3;" parent="1" edge="1">
          <mxGeometry width="50" height="50" relative="1" as="geometry">
            <mxPoint x="660" y="840" as="sourcePoint" />
            <mxPoint x="660" y="210" as="targetPoint" />
          </mxGeometry>
        </mxCell>
      </root>
    </mxGraphModel>
  </diagram>
  <diagram name="Sequence diagram - ucitavanje fotografije" id="2ZxXyUmWXPbJVPDQs77G">
    <mxGraphModel dx="1372" dy="1947" grid="1" gridSize="10" guides="1" tooltips="1" connect="1" arrows="1" fold="1" page="1" pageScale="1" pageWidth="827" pageHeight="1169" math="0" shadow="0">
      <root>
        <mxCell id="wtjVBoTyvKKEvYA9afLp-0" />
        <mxCell id="wtjVBoTyvKKEvYA9afLp-1" parent="wtjVBoTyvKKEvYA9afLp-0" />
        <mxCell id="wtjVBoTyvKKEvYA9afLp-2" value="Korisnik" style="shape=umlLifeline;perimeter=lifelinePerimeter;whiteSpace=wrap;html=1;container=1;dropTarget=0;collapsible=0;recursiveResize=0;outlineConnect=0;portConstraint=eastwest;newEdgeStyle={&quot;curved&quot;:0,&quot;rounded&quot;:0};" parent="wtjVBoTyvKKEvYA9afLp-1" vertex="1">
          <mxGeometry x="40" y="40" width="120" height="400" as="geometry" />
        </mxCell>
        <mxCell id="wtjVBoTyvKKEvYA9afLp-6" value="Interface" style="shape=umlLifeline;perimeter=lifelinePerimeter;whiteSpace=wrap;html=1;container=1;dropTarget=0;collapsible=0;recursiveResize=0;outlineConnect=0;portConstraint=eastwest;newEdgeStyle={&quot;curved&quot;:0,&quot;rounded&quot;:0};" parent="wtjVBoTyvKKEvYA9afLp-1" vertex="1">
          <mxGeometry x="280" y="40" width="120" height="400" as="geometry" />
        </mxCell>
        <mxCell id="_V62u30r80S71SeCX6Jt-2" value="" style="html=1;points=[[0,0,0,0,5],[0,1,0,0,-5],[1,0,0,0,5],[1,1,0,0,-5]];perimeter=orthogonalPerimeter;outlineConnect=0;targetShapes=umlLifeline;portConstraint=eastwest;newEdgeStyle={&quot;curved&quot;:0,&quot;rounded&quot;:0};" parent="wtjVBoTyvKKEvYA9afLp-6" vertex="1">
          <mxGeometry x="55" y="130" width="10" height="30" as="geometry" />
        </mxCell>
        <mxCell id="_V62u30r80S71SeCX6Jt-3" value="filedialog.&lt;div&gt;askopenfilename()&lt;/div&gt;" style="html=1;align=left;spacingLeft=2;endArrow=block;rounded=0;edgeStyle=orthogonalEdgeStyle;curved=0;rounded=0;" parent="wtjVBoTyvKKEvYA9afLp-6" target="_V62u30r80S71SeCX6Jt-2" edge="1">
          <mxGeometry x="0.0023" relative="1" as="geometry">
            <mxPoint x="59" y="110" as="sourcePoint" />
            <Array as="points">
              <mxPoint x="89" y="110" />
              <mxPoint x="89" y="130" />
            </Array>
            <mxPoint as="offset" />
          </mxGeometry>
        </mxCell>
        <mxCell id="mD4vXo31ul6YP5Hf1BXU-0" value="" style="html=1;points=[[0,0,0,0,5],[0,1,0,0,-5],[1,0,0,0,5],[1,1,0,0,-5]];perimeter=orthogonalPerimeter;outlineConnect=0;targetShapes=umlLifeline;portConstraint=eastwest;newEdgeStyle={&quot;curved&quot;:0,&quot;rounded&quot;:0};" parent="wtjVBoTyvKKEvYA9afLp-6" vertex="1">
          <mxGeometry x="55" y="210.03" width="10" height="79.97" as="geometry" />
        </mxCell>
        <mxCell id="mD4vXo31ul6YP5Hf1BXU-1" value="_display(file_path)" style="html=1;align=left;spacingLeft=2;endArrow=block;rounded=0;edgeStyle=orthogonalEdgeStyle;curved=0;rounded=0;" parent="wtjVBoTyvKKEvYA9afLp-6" target="mD4vXo31ul6YP5Hf1BXU-0" edge="1">
          <mxGeometry x="0.0023" relative="1" as="geometry">
            <mxPoint x="59" y="190.03" as="sourcePoint" />
            <Array as="points">
              <mxPoint x="89" y="190.03" />
              <mxPoint x="89" y="210.03" />
            </Array>
            <mxPoint as="offset" />
          </mxGeometry>
        </mxCell>
        <mxCell id="jLdsjSYFe6SR4HDCl_rm-0" value="" style="endArrow=classic;html=1;rounded=0;" parent="wtjVBoTyvKKEvYA9afLp-1" edge="1">
          <mxGeometry width="50" height="50" relative="1" as="geometry">
            <mxPoint x="99.70000000000005" y="120" as="sourcePoint" />
            <mxPoint x="339.5" y="120" as="targetPoint" />
          </mxGeometry>
        </mxCell>
        <mxCell id="jLdsjSYFe6SR4HDCl_rm-1" value="Učitavanje&lt;div&gt;fotografije&lt;/div&gt;" style="edgeLabel;html=1;align=center;verticalAlign=middle;resizable=0;points=[];" parent="jLdsjSYFe6SR4HDCl_rm-0" vertex="1" connectable="0">
          <mxGeometry x="0.0017" y="1" relative="1" as="geometry">
            <mxPoint as="offset" />
          </mxGeometry>
        </mxCell>
        <mxCell id="GtFXsh8Wwc4AO82DT0nY-1" value="alt" style="shape=umlFrame;whiteSpace=wrap;html=1;pointerEvents=0;" parent="wtjVBoTyvKKEvYA9afLp-1" vertex="1">
          <mxGeometry x="210" y="210" width="260" height="140" as="geometry" />
        </mxCell>
        <mxCell id="GtFXsh8Wwc4AO82DT0nY-2" value="[file_path]" style="text;html=1;align=left;verticalAlign=middle;whiteSpace=wrap;rounded=0;" parent="wtjVBoTyvKKEvYA9afLp-1" vertex="1">
          <mxGeometry x="217" y="238" width="60" height="30" as="geometry" />
        </mxCell>
        <mxCell id="WIgrsJLoaZY1VVSZeSZ2-0" value="" style="html=1;verticalAlign=bottom;endArrow=open;dashed=1;endSize=8;curved=0;rounded=0;" parent="wtjVBoTyvKKEvYA9afLp-1" edge="1">
          <mxGeometry relative="1" as="geometry">
            <mxPoint x="339.5" y="330" as="sourcePoint" />
            <mxPoint x="99.95945945945937" y="330" as="targetPoint" />
          </mxGeometry>
        </mxCell>
        <mxCell id="WIgrsJLoaZY1VVSZeSZ2-1" value="prikazivanje&lt;br&gt;fotografije" style="edgeLabel;html=1;align=center;verticalAlign=middle;resizable=0;points=[];" parent="WIgrsJLoaZY1VVSZeSZ2-0" vertex="1" connectable="0">
          <mxGeometry x="0.0174" y="1" relative="1" as="geometry">
            <mxPoint as="offset" />
          </mxGeometry>
        </mxCell>
        <mxCell id="-vsGjPBAeCRaT0xJ0by6-0" value="Učitavanje fotografije" style="shape=umlFrame;whiteSpace=wrap;html=1;pointerEvents=0;width=180;height=30;" parent="wtjVBoTyvKKEvYA9afLp-1" vertex="1">
          <mxGeometry x="20" y="-10" width="480" height="450" as="geometry" />
        </mxCell>
      </root>
    </mxGraphModel>
  </diagram>
  <diagram name="Sequence diagram - analiza fotografije" id="hR5AHeKxmE_8JDLunc3v">
    <mxGraphModel dx="1646" dy="2102" grid="1" gridSize="10" guides="1" tooltips="1" connect="1" arrows="1" fold="1" page="1" pageScale="1" pageWidth="827" pageHeight="1169" math="0" shadow="0">
      <root>
        <mxCell id="VV-5IjWH8E_6RBIJeMTU-0" />
        <mxCell id="VV-5IjWH8E_6RBIJeMTU-1" parent="VV-5IjWH8E_6RBIJeMTU-0" />
        <mxCell id="VV-5IjWH8E_6RBIJeMTU-2" value="Korisnik" style="shape=umlLifeline;perimeter=lifelinePerimeter;whiteSpace=wrap;html=1;container=1;dropTarget=0;collapsible=0;recursiveResize=0;outlineConnect=0;portConstraint=eastwest;newEdgeStyle={&quot;curved&quot;:0,&quot;rounded&quot;:0};" parent="VV-5IjWH8E_6RBIJeMTU-1" vertex="1">
          <mxGeometry x="40" y="40" width="120" height="390" as="geometry" />
        </mxCell>
        <mxCell id="VV-5IjWH8E_6RBIJeMTU-4" value="Queue" style="shape=umlLifeline;perimeter=lifelinePerimeter;whiteSpace=wrap;html=1;container=1;dropTarget=0;collapsible=0;recursiveResize=0;outlineConnect=0;portConstraint=eastwest;newEdgeStyle={&quot;curved&quot;:0,&quot;rounded&quot;:0};" parent="VV-5IjWH8E_6RBIJeMTU-1" vertex="1">
          <mxGeometry x="520" y="40" width="120" height="390" as="geometry" />
        </mxCell>
        <mxCell id="VV-5IjWH8E_6RBIJeMTU-5" value="Interface" style="shape=umlLifeline;perimeter=lifelinePerimeter;whiteSpace=wrap;html=1;container=1;dropTarget=0;collapsible=0;recursiveResize=0;outlineConnect=0;portConstraint=eastwest;newEdgeStyle={&quot;curved&quot;:0,&quot;rounded&quot;:0};" parent="VV-5IjWH8E_6RBIJeMTU-1" vertex="1">
          <mxGeometry x="280" y="40" width="120" height="390" as="geometry" />
        </mxCell>
        <mxCell id="BM2EPSozQK7BZjrrR-YT-0" value="" style="html=1;points=[[0,0,0,0,5],[0,1,0,0,-5],[1,0,0,0,5],[1,1,0,0,-5]];perimeter=orthogonalPerimeter;outlineConnect=0;targetShapes=umlLifeline;portConstraint=eastwest;newEdgeStyle={&quot;curved&quot;:0,&quot;rounded&quot;:0};" parent="VV-5IjWH8E_6RBIJeMTU-5" vertex="1">
          <mxGeometry x="55.00000000000001" y="320" width="10" height="40" as="geometry" />
        </mxCell>
        <mxCell id="BM2EPSozQK7BZjrrR-YT-1" value="__display(result)" style="html=1;align=left;spacingLeft=2;endArrow=block;rounded=0;edgeStyle=orthogonalEdgeStyle;curved=0;rounded=0;" parent="VV-5IjWH8E_6RBIJeMTU-5" target="BM2EPSozQK7BZjrrR-YT-0" edge="1">
          <mxGeometry relative="1" as="geometry">
            <mxPoint x="60.00000000000001" y="300" as="sourcePoint" />
            <Array as="points">
              <mxPoint x="90.00999999999999" y="300" />
              <mxPoint x="90.00999999999999" y="320" />
            </Array>
          </mxGeometry>
        </mxCell>
        <mxCell id="GM93xStp7MVTMIgb7Es--0" value="" style="endArrow=classic;html=1;rounded=0;" parent="VV-5IjWH8E_6RBIJeMTU-1" edge="1">
          <mxGeometry width="50" height="50" relative="1" as="geometry">
            <mxPoint x="99.85483870967744" y="120.00000000000011" as="sourcePoint" />
            <mxPoint x="339.5" y="120.00000000000011" as="targetPoint" />
          </mxGeometry>
        </mxCell>
        <mxCell id="GM93xStp7MVTMIgb7Es--1" value="Analiza fotografije" style="edgeLabel;html=1;align=center;verticalAlign=middle;resizable=0;points=[];" parent="GM93xStp7MVTMIgb7Es--0" vertex="1" connectable="0">
          <mxGeometry x="-0.0027" y="1" relative="1" as="geometry">
            <mxPoint as="offset" />
          </mxGeometry>
        </mxCell>
        <mxCell id="31RYOzpH1BBoBgjrybod-0" value="opt" style="shape=umlFrame;whiteSpace=wrap;html=1;pointerEvents=0;" parent="VV-5IjWH8E_6RBIJeMTU-1" vertex="1">
          <mxGeometry x="160" y="160" width="350" height="100" as="geometry" />
        </mxCell>
        <mxCell id="pdZ8yN9jgkS2AgWG_nOG-0" value="[not self.__picture_array]" style="text;html=1;align=left;verticalAlign=middle;whiteSpace=wrap;rounded=0;" parent="VV-5IjWH8E_6RBIJeMTU-1" vertex="1">
          <mxGeometry x="167" y="188" width="143" height="30" as="geometry" />
        </mxCell>
        <mxCell id="vxvwltVHMm3f772zs6-C-0" value="" style="html=1;points=[[0,0,0,0,5],[0,1,0,0,-5],[1,0,0,0,5],[1,1,0,0,-5]];perimeter=orthogonalPerimeter;outlineConnect=0;targetShapes=umlLifeline;portConstraint=eastwest;newEdgeStyle={&quot;curved&quot;:0,&quot;rounded&quot;:0};" parent="VV-5IjWH8E_6RBIJeMTU-1" vertex="1">
          <mxGeometry x="335" y="188" width="10" height="60" as="geometry" />
        </mxCell>
        <mxCell id="vxvwltVHMm3f772zs6-C-1" value="__select_and_display()" style="html=1;align=left;spacingLeft=2;endArrow=block;rounded=0;edgeStyle=orthogonalEdgeStyle;curved=0;rounded=0;" parent="VV-5IjWH8E_6RBIJeMTU-1" target="vxvwltVHMm3f772zs6-C-0" edge="1">
          <mxGeometry relative="1" as="geometry">
            <mxPoint x="340" y="171" as="sourcePoint" />
            <Array as="points">
              <mxPoint x="370" y="171" />
              <mxPoint x="370" y="190" />
            </Array>
          </mxGeometry>
        </mxCell>
        <mxCell id="vxvwltVHMm3f772zs6-C-2" value="" style="endArrow=classic;html=1;rounded=0;" parent="VV-5IjWH8E_6RBIJeMTU-1" edge="1">
          <mxGeometry width="50" height="50" relative="1" as="geometry">
            <mxPoint x="339.85483870967755" y="289.0000000000001" as="sourcePoint" />
            <mxPoint x="579.5" y="289.0000000000001" as="targetPoint" />
          </mxGeometry>
        </mxCell>
        <mxCell id="vxvwltVHMm3f772zs6-C-3" value="&amp;lt;&amp;lt; async &amp;gt;&amp;gt;&lt;div&gt;put()&lt;/div&gt;" style="edgeLabel;html=1;align=center;verticalAlign=middle;resizable=0;points=[];" parent="vxvwltVHMm3f772zs6-C-2" vertex="1" connectable="0">
          <mxGeometry x="-0.0081" relative="1" as="geometry">
            <mxPoint y="-1" as="offset" />
          </mxGeometry>
        </mxCell>
        <mxCell id="Vwq82EQkS400A9hxrh1e-0" value="" style="html=1;verticalAlign=bottom;endArrow=openAsync;dashed=1;endSize=8;curved=0;rounded=0;endFill=0;" parent="VV-5IjWH8E_6RBIJeMTU-1" edge="1">
          <mxGeometry relative="1" as="geometry">
            <mxPoint x="579.5" y="321.0000000000001" as="sourcePoint" />
            <mxPoint x="339.85483870967755" y="321.0000000000001" as="targetPoint" />
          </mxGeometry>
        </mxCell>
        <mxCell id="Vwq82EQkS400A9hxrh1e-1" value="&amp;lt;&amp;lt; async &amp;gt;&amp;gt;&lt;div&gt;get()&lt;/div&gt;" style="edgeLabel;html=1;align=center;verticalAlign=middle;resizable=0;points=[];" parent="Vwq82EQkS400A9hxrh1e-0" vertex="1" connectable="0">
          <mxGeometry x="0.0174" y="1" relative="1" as="geometry">
            <mxPoint y="-1" as="offset" />
          </mxGeometry>
        </mxCell>
        <mxCell id="bW128Jny91jjshegm_JY-0" value="" style="html=1;verticalAlign=bottom;endArrow=open;dashed=1;endSize=8;curved=0;rounded=0;" parent="VV-5IjWH8E_6RBIJeMTU-1" edge="1">
          <mxGeometry relative="1" as="geometry">
            <mxPoint x="335" y="400" as="sourcePoint" />
            <mxPoint x="100.23333333333335" y="400" as="targetPoint" />
          </mxGeometry>
        </mxCell>
        <mxCell id="bW128Jny91jjshegm_JY-1" value="prikazivanje&lt;div&gt;fotografije&lt;/div&gt;" style="edgeLabel;html=1;align=center;verticalAlign=middle;resizable=0;points=[];" parent="bW128Jny91jjshegm_JY-0" vertex="1" connectable="0">
          <mxGeometry x="0.0174" y="1" relative="1" as="geometry">
            <mxPoint y="-2" as="offset" />
          </mxGeometry>
        </mxCell>
        <mxCell id="M_q-RMto2QmEJ2fSULvT-0" value="Analiza fotografije" style="shape=umlFrame;whiteSpace=wrap;html=1;pointerEvents=0;width=180;height=32;" parent="VV-5IjWH8E_6RBIJeMTU-1" vertex="1">
          <mxGeometry x="20" y="-12" width="640" height="442" as="geometry" />
        </mxCell>
      </root>
    </mxGraphModel>
  </diagram>
  <diagram id="wQDKZgF0vqxJNGfoDoCH" name="Class diagram">
    <mxGraphModel dx="2473" dy="933" grid="1" gridSize="10" guides="1" tooltips="1" connect="1" arrows="1" fold="1" page="1" pageScale="1" pageWidth="827" pageHeight="1169" math="0" shadow="0">
      <root>
        <mxCell id="0" />
        <mxCell id="1" parent="0" />
        <mxCell id="OOmvO0xU4txCv-QjgHfH-25" value="Fetcher" style="swimlane;fontStyle=1;align=center;verticalAlign=top;childLayout=stackLayout;horizontal=1;startSize=26;horizontalStack=0;resizeParent=1;resizeParentMax=0;resizeLast=0;collapsible=1;marginBottom=0;whiteSpace=wrap;html=1;" parent="1" vertex="1">
          <mxGeometry x="280" y="480" width="280" height="130" as="geometry">
            <mxRectangle x="80" y="80" width="90" height="30" as="alternateBounds" />
          </mxGeometry>
        </mxCell>
        <mxCell id="OOmvO0xU4txCv-QjgHfH-26" value="- __buffer : np.ndarray" style="text;strokeColor=none;fillColor=none;align=left;verticalAlign=top;spacingLeft=4;spacingRight=4;overflow=hidden;rotatable=0;points=[[0,0.5],[1,0.5]];portConstraint=eastwest;whiteSpace=wrap;html=1;" parent="OOmvO0xU4txCv-QjgHfH-25" vertex="1">
          <mxGeometry y="26" width="280" height="26" as="geometry" />
        </mxCell>
        <mxCell id="OOmvO0xU4txCv-QjgHfH-27" value="" style="line;strokeWidth=1;fillColor=none;align=left;verticalAlign=middle;spacingTop=-1;spacingLeft=3;spacingRight=3;rotatable=0;labelPosition=right;points=[];portConstraint=eastwest;strokeColor=inherit;" parent="OOmvO0xU4txCv-QjgHfH-25" vertex="1">
          <mxGeometry y="52" width="280" height="8" as="geometry" />
        </mxCell>
        <mxCell id="OOmvO0xU4txCv-QjgHfH-28" value="&lt;div&gt;+ __init__() : None&lt;/div&gt;+ load_dicom() : None&lt;div&gt;+ generate_masks() : None&lt;/div&gt;&lt;div&gt;+ get_buffer() : np.ndarray&lt;/div&gt;" style="text;strokeColor=none;fillColor=none;align=left;verticalAlign=top;spacingLeft=4;spacingRight=4;overflow=hidden;rotatable=0;points=[[0,0.5],[1,0.5]];portConstraint=eastwest;whiteSpace=wrap;html=1;" parent="OOmvO0xU4txCv-QjgHfH-25" vertex="1">
          <mxGeometry y="60" width="280" height="70" as="geometry" />
        </mxCell>
        <mxCell id="OOmvO0xU4txCv-QjgHfH-29" value="Interface" style="swimlane;fontStyle=1;align=center;verticalAlign=top;childLayout=stackLayout;horizontal=1;startSize=26;horizontalStack=0;resizeParent=1;resizeParentMax=0;resizeLast=0;collapsible=1;marginBottom=0;whiteSpace=wrap;html=1;" parent="1" vertex="1">
          <mxGeometry x="-80" y="360" width="280" height="260" as="geometry">
            <mxRectangle x="80" y="80" width="90" height="30" as="alternateBounds" />
          </mxGeometry>
        </mxCell>
        <mxCell id="OOmvO0xU4txCv-QjgHfH-30" value="- __queue : Queue&lt;div&gt;- __window : Tk&lt;/div&gt;&lt;div&gt;- __picture_array : np.ndarray&lt;/div&gt;&lt;div&gt;- __picture : Label&lt;/div&gt;&lt;div&gt;- __buttons_frame : Frame&lt;/div&gt;&lt;div&gt;- __left_button : Button&lt;/div&gt;&lt;div&gt;- __right_button : Button&lt;/div&gt;&lt;div&gt;- __text : Label&lt;/div&gt;&lt;div&gt;- __pixel_area : float&lt;/div&gt;" style="text;strokeColor=none;fillColor=none;align=left;verticalAlign=top;spacingLeft=4;spacingRight=4;overflow=hidden;rotatable=0;points=[[0,0.5],[1,0.5]];portConstraint=eastwest;whiteSpace=wrap;html=1;" parent="OOmvO0xU4txCv-QjgHfH-29" vertex="1">
          <mxGeometry y="26" width="280" height="144" as="geometry" />
        </mxCell>
        <mxCell id="OOmvO0xU4txCv-QjgHfH-31" value="" style="line;strokeWidth=1;fillColor=none;align=left;verticalAlign=middle;spacingTop=-1;spacingLeft=3;spacingRight=3;rotatable=0;labelPosition=right;points=[];portConstraint=eastwest;strokeColor=inherit;" parent="OOmvO0xU4txCv-QjgHfH-29" vertex="1">
          <mxGeometry y="170" width="280" height="8" as="geometry" />
        </mxCell>
        <mxCell id="OOmvO0xU4txCv-QjgHfH-32" value="+ __init__(queue : Queue) : None&lt;div&gt;# _select_and_display() : None&lt;/div&gt;&lt;div&gt;- __display(picture : np.ndarray | str) : None&lt;/div&gt;&lt;div&gt;# _analyse_and_display() : None&lt;/div&gt;&lt;div&gt;+ run() : None&lt;/div&gt;" style="text;strokeColor=none;fillColor=none;align=left;verticalAlign=top;spacingLeft=4;spacingRight=4;overflow=hidden;rotatable=0;points=[[0,0.5],[1,0.5]];portConstraint=eastwest;whiteSpace=wrap;html=1;" parent="OOmvO0xU4txCv-QjgHfH-29" vertex="1">
          <mxGeometry y="178" width="280" height="82" as="geometry" />
        </mxCell>
        <mxCell id="OOmvO0xU4txCv-QjgHfH-33" value="Model" style="swimlane;fontStyle=1;align=center;verticalAlign=top;childLayout=stackLayout;horizontal=1;startSize=26;horizontalStack=0;resizeParent=1;resizeParentMax=0;resizeLast=0;collapsible=1;marginBottom=0;whiteSpace=wrap;html=1;" parent="1" vertex="1">
          <mxGeometry x="640" y="360" width="280" height="190" as="geometry">
            <mxRectangle x="80" y="80" width="90" height="30" as="alternateBounds" />
          </mxGeometry>
        </mxCell>
        <mxCell id="OOmvO0xU4txCv-QjgHfH-34" value="- __model : any&lt;div&gt;- __queue : Queue&lt;/div&gt;&lt;div&gt;- __is_ready : bool&lt;/div&gt;&lt;div&gt;- __buffer : np.ndarray&lt;/div&gt;" style="text;strokeColor=none;fillColor=none;align=left;verticalAlign=top;spacingLeft=4;spacingRight=4;overflow=hidden;rotatable=0;points=[[0,0.5],[1,0.5]];portConstraint=eastwest;whiteSpace=wrap;html=1;" parent="OOmvO0xU4txCv-QjgHfH-33" vertex="1">
          <mxGeometry y="26" width="280" height="74" as="geometry" />
        </mxCell>
        <mxCell id="OOmvO0xU4txCv-QjgHfH-35" value="" style="line;strokeWidth=1;fillColor=none;align=left;verticalAlign=middle;spacingTop=-1;spacingLeft=3;spacingRight=3;rotatable=0;labelPosition=right;points=[];portConstraint=eastwest;strokeColor=inherit;" parent="OOmvO0xU4txCv-QjgHfH-33" vertex="1">
          <mxGeometry y="100" width="280" height="8" as="geometry" />
        </mxCell>
        <mxCell id="OOmvO0xU4txCv-QjgHfH-36" value="+ __init__(queue : Queue) : None&lt;div&gt;- __build_model() : None&lt;/div&gt;&lt;div&gt;- __training() : None&lt;/div&gt;&lt;div&gt;- __predict(picture : np.ndarray) : None&lt;/div&gt;&lt;div&gt;+ run() : None&lt;/div&gt;" style="text;strokeColor=none;fillColor=none;align=left;verticalAlign=top;spacingLeft=4;spacingRight=4;overflow=hidden;rotatable=0;points=[[0,0.5],[1,0.5]];portConstraint=eastwest;whiteSpace=wrap;html=1;" parent="OOmvO0xU4txCv-QjgHfH-33" vertex="1">
          <mxGeometry y="108" width="280" height="82" as="geometry" />
        </mxCell>
        <mxCell id="3IABFbYcELwM0Twai6Kq-1" value="Main" style="swimlane;fontStyle=1;align=center;verticalAlign=top;childLayout=stackLayout;horizontal=1;startSize=26;horizontalStack=0;resizeParent=1;resizeParentMax=0;resizeLast=0;collapsible=1;marginBottom=0;whiteSpace=wrap;html=1;" parent="1" vertex="1">
          <mxGeometry x="280" y="130" width="280" height="150" as="geometry">
            <mxRectangle x="80" y="80" width="90" height="30" as="alternateBounds" />
          </mxGeometry>
        </mxCell>
        <mxCell id="3IABFbYcELwM0Twai6Kq-2" value="- __queue : Queue&lt;div&gt;- __interface : Interface&lt;/div&gt;&lt;div&gt;- __model : Model&lt;/div&gt;&lt;div&gt;- __model_process : Process&amp;nbsp;&lt;/div&gt;" style="text;strokeColor=none;fillColor=none;align=left;verticalAlign=top;spacingLeft=4;spacingRight=4;overflow=hidden;rotatable=0;points=[[0,0.5],[1,0.5]];portConstraint=eastwest;whiteSpace=wrap;html=1;" parent="3IABFbYcELwM0Twai6Kq-1" vertex="1">
          <mxGeometry y="26" width="280" height="74" as="geometry" />
        </mxCell>
        <mxCell id="3IABFbYcELwM0Twai6Kq-3" value="" style="line;strokeWidth=1;fillColor=none;align=left;verticalAlign=middle;spacingTop=-1;spacingLeft=3;spacingRight=3;rotatable=0;labelPosition=right;points=[];portConstraint=eastwest;strokeColor=inherit;" parent="3IABFbYcELwM0Twai6Kq-1" vertex="1">
          <mxGeometry y="100" width="280" height="8" as="geometry" />
        </mxCell>
        <mxCell id="3IABFbYcELwM0Twai6Kq-4" value="+ __init__() : None&lt;div&gt;+ run() : None&lt;/div&gt;" style="text;strokeColor=none;fillColor=none;align=left;verticalAlign=top;spacingLeft=4;spacingRight=4;overflow=hidden;rotatable=0;points=[[0,0.5],[1,0.5]];portConstraint=eastwest;whiteSpace=wrap;html=1;" parent="3IABFbYcELwM0Twai6Kq-1" vertex="1">
          <mxGeometry y="108" width="280" height="42" as="geometry" />
        </mxCell>
        <mxCell id="3IABFbYcELwM0Twai6Kq-6" value="" style="endArrow=none;startArrow=diamondThin;endFill=0;startFill=1;html=1;verticalAlign=bottom;labelBackgroundColor=none;strokeWidth=1;startSize=8;endSize=8;rounded=0;entryX=0.571;entryY=0;entryDx=0;entryDy=0;entryPerimeter=0;" parent="1" target="OOmvO0xU4txCv-QjgHfH-29" edge="1">
          <mxGeometry width="160" relative="1" as="geometry">
            <mxPoint x="280" y="199.74" as="sourcePoint" />
            <mxPoint x="120" y="350" as="targetPoint" />
            <Array as="points">
              <mxPoint x="80" y="200" />
            </Array>
          </mxGeometry>
        </mxCell>
        <mxCell id="3IABFbYcELwM0Twai6Kq-9" value="&amp;lt;&amp;lt; use &amp;gt;&amp;gt;" style="endArrow=open;startArrow=none;endFill=0;startFill=0;endSize=8;html=1;verticalAlign=bottom;dashed=1;labelBackgroundColor=none;rounded=0;" parent="1" edge="1">
          <mxGeometry width="160" relative="1" as="geometry">
            <mxPoint x="640" y="540" as="sourcePoint" />
            <mxPoint x="560" y="540" as="targetPoint" />
          </mxGeometry>
        </mxCell>
        <mxCell id="3IABFbYcELwM0Twai6Kq-15" value="" style="endArrow=none;startArrow=diamondThin;endFill=0;startFill=1;html=1;verticalAlign=bottom;labelBackgroundColor=none;strokeWidth=1;startSize=8;endSize=8;rounded=0;entryX=0.571;entryY=0;entryDx=0;entryDy=0;entryPerimeter=0;exitX=1;exitY=0.595;exitDx=0;exitDy=0;exitPerimeter=0;" parent="1" source="3IABFbYcELwM0Twai6Kq-2" edge="1">
          <mxGeometry width="160" relative="1" as="geometry">
            <mxPoint x="651.9999999999998" y="199.73400000000004" as="sourcePoint" />
            <mxPoint x="779.76" y="360" as="targetPoint" />
            <Array as="points">
              <mxPoint x="779.76" y="200" />
            </Array>
          </mxGeometry>
        </mxCell>
        <mxCell id="3IABFbYcELwM0Twai6Kq-21" value="Queue" style="swimlane;fontStyle=1;align=center;verticalAlign=top;childLayout=stackLayout;horizontal=1;startSize=26;horizontalStack=0;resizeParent=1;resizeParentMax=0;resizeLast=0;collapsible=1;marginBottom=0;whiteSpace=wrap;html=1;" parent="1" vertex="1">
          <mxGeometry x="280" y="320" width="280" height="120" as="geometry">
            <mxRectangle x="80" y="80" width="90" height="30" as="alternateBounds" />
          </mxGeometry>
        </mxCell>
        <mxCell id="3IABFbYcELwM0Twai6Kq-22" value="..." style="text;strokeColor=none;fillColor=none;align=left;verticalAlign=top;spacingLeft=4;spacingRight=4;overflow=hidden;rotatable=0;points=[[0,0.5],[1,0.5]];portConstraint=eastwest;whiteSpace=wrap;html=1;" parent="3IABFbYcELwM0Twai6Kq-21" vertex="1">
          <mxGeometry y="26" width="280" height="26" as="geometry" />
        </mxCell>
        <mxCell id="3IABFbYcELwM0Twai6Kq-23" value="" style="line;strokeWidth=1;fillColor=none;align=left;verticalAlign=middle;spacingTop=-1;spacingLeft=3;spacingRight=3;rotatable=0;labelPosition=right;points=[];portConstraint=eastwest;strokeColor=inherit;" parent="3IABFbYcELwM0Twai6Kq-21" vertex="1">
          <mxGeometry y="52" width="280" height="8" as="geometry" />
        </mxCell>
        <mxCell id="3IABFbYcELwM0Twai6Kq-24" value="&lt;div&gt;+ __init__() : None&lt;/div&gt;+ get() : Any&lt;div&gt;+ put( _ : Any) : None&lt;/div&gt;" style="text;strokeColor=none;fillColor=none;align=left;verticalAlign=top;spacingLeft=4;spacingRight=4;overflow=hidden;rotatable=0;points=[[0,0.5],[1,0.5]];portConstraint=eastwest;whiteSpace=wrap;html=1;" parent="3IABFbYcELwM0Twai6Kq-21" vertex="1">
          <mxGeometry y="60" width="280" height="60" as="geometry" />
        </mxCell>
        <mxCell id="3IABFbYcELwM0Twai6Kq-25" value="" style="endArrow=none;startArrow=diamondThin;endFill=0;startFill=1;html=1;verticalAlign=bottom;labelBackgroundColor=none;strokeWidth=1;startSize=8;endSize=8;rounded=0;" parent="1" edge="1">
          <mxGeometry width="160" relative="1" as="geometry">
            <mxPoint x="419.78" y="280" as="sourcePoint" />
            <mxPoint x="419.78" y="320" as="targetPoint" />
          </mxGeometry>
        </mxCell>
        <mxCell id="3IABFbYcELwM0Twai6Kq-26" value="" style="endArrow=none;startArrow=none;endFill=0;startFill=0;endSize=8;html=1;verticalAlign=bottom;labelBackgroundColor=none;strokeWidth=3;rounded=0;" parent="1" edge="1">
          <mxGeometry width="160" relative="1" as="geometry">
            <mxPoint x="200" y="410" as="sourcePoint" />
            <mxPoint x="280" y="410" as="targetPoint" />
          </mxGeometry>
        </mxCell>
        <mxCell id="3IABFbYcELwM0Twai6Kq-27" value="" style="endArrow=none;startArrow=none;endFill=0;startFill=0;endSize=8;html=1;verticalAlign=bottom;labelBackgroundColor=none;strokeWidth=3;rounded=0;" parent="1" edge="1">
          <mxGeometry width="160" relative="1" as="geometry">
            <mxPoint x="560" y="410" as="sourcePoint" />
            <mxPoint x="640" y="410" as="targetPoint" />
          </mxGeometry>
        </mxCell>
        <mxCell id="ngk43l1yOJJrwOHXfWyW-1" value="" style="rounded=0;whiteSpace=wrap;html=1;gradientColor=default;fillColor=none;strokeColor=none;" vertex="1" parent="1">
          <mxGeometry x="-100" y="100" width="1070" height="580" as="geometry" />
        </mxCell>
      </root>
    </mxGraphModel>
  </diagram>
  <diagram id="vcRT9mgcRfawJ6VuqFrF" name="Activity diagram">
    <mxGraphModel dx="2144" dy="1915" grid="1" gridSize="10" guides="1" tooltips="1" connect="1" arrows="1" fold="1" page="1" pageScale="1" pageWidth="827" pageHeight="1169" math="0" shadow="0">
      <root>
        <mxCell id="0" />
        <mxCell id="1" parent="0" />
        <mxCell id="amtX5zFRoJq_hRSY1Kwn-2" value="s" style="rounded=0;whiteSpace=wrap;html=1;fillColor=none;strokeColor=none;" vertex="1" parent="1">
          <mxGeometry x="-110" y="-50" width="730" height="610" as="geometry" />
        </mxCell>
        <mxCell id="vhfTs4uLfoDrNSeXMX57-21" value="" style="html=1;align=center;verticalAlign=top;rounded=1;absoluteArcSize=1;arcSize=10;dashed=0;whiteSpace=wrap;direction=south;" parent="1" vertex="1">
          <mxGeometry x="300" y="140" width="160" height="280" as="geometry" />
        </mxCell>
        <mxCell id="vhfTs4uLfoDrNSeXMX57-20" value="" style="html=1;align=center;verticalAlign=top;rounded=1;absoluteArcSize=1;arcSize=10;dashed=0;whiteSpace=wrap;direction=south;" parent="1" vertex="1">
          <mxGeometry x="-70" y="20" width="210" height="400" as="geometry" />
        </mxCell>
        <mxCell id="vhfTs4uLfoDrNSeXMX57-39" style="edgeStyle=orthogonalEdgeStyle;rounded=0;orthogonalLoop=1;jettySize=auto;html=1;exitX=0.5;exitY=1;exitDx=0;exitDy=0;entryX=0.5;entryY=0;entryDx=0;entryDy=0;" parent="1" source="UfLzplEeQjErC0nXBPUM-2" target="SlhhQhtwIUIpSkklSuzA-18" edge="1">
          <mxGeometry relative="1" as="geometry" />
        </mxCell>
        <mxCell id="vhfTs4uLfoDrNSeXMX57-77" style="edgeStyle=orthogonalEdgeStyle;rounded=0;orthogonalLoop=1;jettySize=auto;html=1;exitX=0.5;exitY=0;exitDx=0;exitDy=0;entryX=0.5;entryY=0;entryDx=0;entryDy=0;" parent="1" source="UfLzplEeQjErC0nXBPUM-2" target="SlhhQhtwIUIpSkklSuzA-17" edge="1">
          <mxGeometry relative="1" as="geometry">
            <mxPoint x="70" y="-60" as="targetPoint" />
            <Array as="points">
              <mxPoint x="380" y="-10" />
              <mxPoint x="60" y="-10" />
            </Array>
          </mxGeometry>
        </mxCell>
        <mxCell id="UfLzplEeQjErC0nXBPUM-2" value="&lt;span style=&quot;font-size: 8px;&quot;&gt;Odabir radnje&lt;/span&gt;" style="rhombus;whiteSpace=wrap;html=1;fontColor=#000000;fillColor=#FFFFFF;strokeColor=#000000;" parent="1" vertex="1">
          <mxGeometry x="330" y="50" width="100" height="60" as="geometry" />
        </mxCell>
        <mxCell id="vhfTs4uLfoDrNSeXMX57-76" style="edgeStyle=orthogonalEdgeStyle;rounded=0;orthogonalLoop=1;jettySize=auto;html=1;exitX=0;exitY=0.5;exitDx=0;exitDy=0;entryX=1;entryY=0.5;entryDx=0;entryDy=0;" parent="1" source="okj-aXJjC3q83hHJQOhw-9" target="UfLzplEeQjErC0nXBPUM-2" edge="1">
          <mxGeometry relative="1" as="geometry" />
        </mxCell>
        <mxCell id="okj-aXJjC3q83hHJQOhw-9" value="&lt;font style=&quot;font-size: 8px;&quot;&gt;Pokretanje aplikacije&lt;/font&gt;" style="rounded=1;whiteSpace=wrap;html=1;arcSize=40;fontColor=#000000;fillColor=#FFFFFF;strokeColor=#000000;" parent="1" vertex="1">
          <mxGeometry x="480" y="60" width="120" height="40" as="geometry" />
        </mxCell>
        <mxCell id="vhfTs4uLfoDrNSeXMX57-84" style="edgeStyle=orthogonalEdgeStyle;rounded=0;orthogonalLoop=1;jettySize=auto;html=1;exitX=0.5;exitY=1;exitDx=0;exitDy=0;entryX=0.5;entryY=0;entryDx=0;entryDy=0;" parent="1" source="SlhhQhtwIUIpSkklSuzA-16" target="okj-aXJjC3q83hHJQOhw-9" edge="1">
          <mxGeometry relative="1" as="geometry" />
        </mxCell>
        <mxCell id="SlhhQhtwIUIpSkklSuzA-16" value="" style="ellipse;fillColor=strokeColor;html=1;" parent="1" vertex="1">
          <mxGeometry x="530" y="10" width="20" height="20" as="geometry" />
        </mxCell>
        <mxCell id="C6iiVPVNQVPx3NPx2yUD-3" style="edgeStyle=orthogonalEdgeStyle;rounded=0;orthogonalLoop=1;jettySize=auto;html=1;exitX=0.5;exitY=1;exitDx=0;exitDy=0;entryX=0.5;entryY=0;entryDx=0;entryDy=0;" parent="1" source="SlhhQhtwIUIpSkklSuzA-17" target="C6iiVPVNQVPx3NPx2yUD-2" edge="1">
          <mxGeometry relative="1" as="geometry" />
        </mxCell>
        <mxCell id="SlhhQhtwIUIpSkklSuzA-17" value="&lt;span style=&quot;font-size: 8px;&quot;&gt;Otvaranje prozora za&lt;/span&gt;&lt;div&gt;&lt;span style=&quot;font-size: 8px;&quot;&gt;odabir fotografije&lt;/span&gt;&lt;/div&gt;" style="rounded=1;whiteSpace=wrap;html=1;arcSize=40;fontColor=#000000;fillColor=#FFFFFF;strokeColor=#000000;" parent="1" vertex="1">
          <mxGeometry y="70" width="120" height="40" as="geometry" />
        </mxCell>
        <mxCell id="vhfTs4uLfoDrNSeXMX57-4" style="edgeStyle=orthogonalEdgeStyle;rounded=0;orthogonalLoop=1;jettySize=auto;html=1;exitX=0.5;exitY=1;exitDx=0;exitDy=0;entryX=0.5;entryY=0;entryDx=0;entryDy=0;" parent="1" source="SlhhQhtwIUIpSkklSuzA-18" target="vhfTs4uLfoDrNSeXMX57-3" edge="1">
          <mxGeometry relative="1" as="geometry" />
        </mxCell>
        <mxCell id="SlhhQhtwIUIpSkklSuzA-18" value="&lt;span style=&quot;font-size: 8px;&quot;&gt;Analiza fotografije&lt;/span&gt;" style="rounded=1;whiteSpace=wrap;html=1;arcSize=40;fontColor=#000000;fillColor=#FFFFFF;strokeColor=#000000;" parent="1" vertex="1">
          <mxGeometry x="320" y="160" width="120" height="40" as="geometry" />
        </mxCell>
        <mxCell id="SlhhQhtwIUIpSkklSuzA-23" value="&lt;font style=&quot;font-size: 8px;&quot;&gt;Učitavanje fotografije&lt;/font&gt;" style="text;html=1;align=center;verticalAlign=middle;whiteSpace=wrap;rounded=0;" parent="1" vertex="1">
          <mxGeometry x="380" y="17" width="80" height="40" as="geometry" />
        </mxCell>
        <mxCell id="C6iiVPVNQVPx3NPx2yUD-1" value="&lt;span style=&quot;font-size: 8px;&quot;&gt;Analiza fotografije&lt;/span&gt;" style="text;html=1;align=center;verticalAlign=middle;whiteSpace=wrap;rounded=0;" parent="1" vertex="1">
          <mxGeometry x="374" y="100" width="80" height="40" as="geometry" />
        </mxCell>
        <mxCell id="vhfTs4uLfoDrNSeXMX57-23" style="edgeStyle=orthogonalEdgeStyle;rounded=0;orthogonalLoop=1;jettySize=auto;html=1;exitX=0.5;exitY=1;exitDx=0;exitDy=0;entryX=0.5;entryY=0;entryDx=0;entryDy=0;" parent="1" source="C6iiVPVNQVPx3NPx2yUD-2" target="vhfTs4uLfoDrNSeXMX57-1" edge="1">
          <mxGeometry relative="1" as="geometry" />
        </mxCell>
        <mxCell id="C6iiVPVNQVPx3NPx2yUD-2" value="&lt;span style=&quot;font-size: 8px;&quot;&gt;Učitavanje fotografije&lt;/span&gt;" style="rounded=1;whiteSpace=wrap;html=1;arcSize=40;fontColor=#000000;fillColor=#FFFFFF;strokeColor=#000000;" parent="1" vertex="1">
          <mxGeometry y="240" width="120" height="40" as="geometry" />
        </mxCell>
        <mxCell id="C6iiVPVNQVPx3NPx2yUD-8" value="" style="shape=mxgraph.lean_mapping.electronic_info_flow_edge;html=1;rounded=0;entryX=0.25;entryY=1;entryDx=0;entryDy=0;exitX=0.25;exitY=0;exitDx=0;exitDy=0;" parent="1" source="C6iiVPVNQVPx3NPx2yUD-2" target="SlhhQhtwIUIpSkklSuzA-17" edge="1">
          <mxGeometry width="160" relative="1" as="geometry">
            <mxPoint x="70" y="200" as="sourcePoint" />
            <mxPoint x="70" y="100" as="targetPoint" />
          </mxGeometry>
        </mxCell>
        <mxCell id="C6iiVPVNQVPx3NPx2yUD-9" value="&lt;span style=&quot;font-size: 8px;&quot;&gt;Pogrešan tip podatka&lt;/span&gt;" style="text;html=1;align=center;verticalAlign=middle;whiteSpace=wrap;rounded=0;rotation=0;" parent="1" vertex="1">
          <mxGeometry x="-58" y="160" width="80" height="40" as="geometry" />
        </mxCell>
        <mxCell id="vhfTs4uLfoDrNSeXMX57-56" style="edgeStyle=orthogonalEdgeStyle;rounded=0;orthogonalLoop=1;jettySize=auto;html=1;exitX=0.5;exitY=1;exitDx=0;exitDy=0;" parent="1" source="C6iiVPVNQVPx3NPx2yUD-11" target="vhfTs4uLfoDrNSeXMX57-55" edge="1">
          <mxGeometry relative="1" as="geometry" />
        </mxCell>
        <mxCell id="C6iiVPVNQVPx3NPx2yUD-11" value="&lt;span style=&quot;font-size: 8px;&quot;&gt;Izlaz iz aplikacije&lt;/span&gt;" style="rounded=1;whiteSpace=wrap;html=1;arcSize=40;fontColor=#000000;fillColor=#FFFFFF;strokeColor=#000000;" parent="1" vertex="1">
          <mxGeometry x="160" y="450" width="120" height="40" as="geometry" />
        </mxCell>
        <mxCell id="vhfTs4uLfoDrNSeXMX57-62" style="edgeStyle=orthogonalEdgeStyle;rounded=0;orthogonalLoop=1;jettySize=auto;html=1;exitX=1;exitY=0.5;exitDx=0;exitDy=0;entryX=0.5;entryY=1;entryDx=0;entryDy=0;jumpStyle=none;" parent="1" source="vhfTs4uLfoDrNSeXMX57-1" target="vhfTs4uLfoDrNSeXMX57-61" edge="1">
          <mxGeometry relative="1" as="geometry">
            <mxPoint x="240" y="340.21212121212125" as="targetPoint" />
          </mxGeometry>
        </mxCell>
        <mxCell id="vhfTs4uLfoDrNSeXMX57-1" value="&lt;span style=&quot;font-size: 8px;&quot;&gt;Prikaz fotografije&lt;/span&gt;" style="rounded=1;whiteSpace=wrap;html=1;arcSize=40;fontColor=#000000;fillColor=#FFFFFF;strokeColor=#000000;" parent="1" vertex="1">
          <mxGeometry y="320" width="120" height="40" as="geometry" />
        </mxCell>
        <mxCell id="vhfTs4uLfoDrNSeXMX57-6" style="edgeStyle=orthogonalEdgeStyle;rounded=0;orthogonalLoop=1;jettySize=auto;html=1;exitX=0.5;exitY=1;exitDx=0;exitDy=0;entryX=0.5;entryY=0;entryDx=0;entryDy=0;" parent="1" source="vhfTs4uLfoDrNSeXMX57-3" target="vhfTs4uLfoDrNSeXMX57-5" edge="1">
          <mxGeometry relative="1" as="geometry" />
        </mxCell>
        <mxCell id="vhfTs4uLfoDrNSeXMX57-83" style="edgeStyle=orthogonalEdgeStyle;rounded=0;orthogonalLoop=1;jettySize=auto;html=1;exitX=0;exitY=0.5;exitDx=0;exitDy=0;entryX=1;entryY=0.5;entryDx=0;entryDy=0;jumpStyle=gap;" parent="1" source="vhfTs4uLfoDrNSeXMX57-3" target="SlhhQhtwIUIpSkklSuzA-17" edge="1">
          <mxGeometry relative="1" as="geometry">
            <Array as="points">
              <mxPoint x="160" y="280" />
              <mxPoint x="160" y="90" />
            </Array>
          </mxGeometry>
        </mxCell>
        <mxCell id="vhfTs4uLfoDrNSeXMX57-3" value="&lt;span style=&quot;font-size: 8px;&quot;&gt;Da li je fotografija&lt;/span&gt;&lt;div&gt;&lt;span style=&quot;font-size: 8px;&quot;&gt;učitana?&lt;/span&gt;&lt;/div&gt;" style="rhombus;whiteSpace=wrap;html=1;fontColor=#000000;fillColor=#FFFFFF;strokeColor=#000000;" parent="1" vertex="1">
          <mxGeometry x="330" y="250" width="100" height="60" as="geometry" />
        </mxCell>
        <mxCell id="vhfTs4uLfoDrNSeXMX57-41" style="edgeStyle=orthogonalEdgeStyle;rounded=0;orthogonalLoop=1;jettySize=auto;html=1;exitX=0;exitY=0.5;exitDx=0;exitDy=0;entryX=0.5;entryY=1;entryDx=0;entryDy=0;" parent="1" source="vhfTs4uLfoDrNSeXMX57-5" target="vhfTs4uLfoDrNSeXMX57-1" edge="1">
          <mxGeometry relative="1" as="geometry" />
        </mxCell>
        <mxCell id="vhfTs4uLfoDrNSeXMX57-5" value="&lt;span style=&quot;font-size: 8px;&quot;&gt;Analiza fotografije&lt;/span&gt;" style="rounded=1;whiteSpace=wrap;html=1;arcSize=40;fontColor=#000000;fillColor=#FFFFFF;strokeColor=#000000;" parent="1" vertex="1">
          <mxGeometry x="320" y="360" width="120" height="40" as="geometry" />
        </mxCell>
        <mxCell id="vhfTs4uLfoDrNSeXMX57-7" value="&lt;span style=&quot;font-size: 8px;&quot;&gt;Da&lt;/span&gt;" style="text;html=1;align=center;verticalAlign=middle;whiteSpace=wrap;rounded=0;" parent="1" vertex="1">
          <mxGeometry x="330" y="300" width="80" height="40" as="geometry" />
        </mxCell>
        <mxCell id="vhfTs4uLfoDrNSeXMX57-26" value="&lt;span style=&quot;font-size: 8px;&quot;&gt;Ne&lt;/span&gt;" style="text;html=1;align=center;verticalAlign=middle;whiteSpace=wrap;rounded=0;" parent="1" vertex="1">
          <mxGeometry x="280" y="250" width="80" height="40" as="geometry" />
        </mxCell>
        <mxCell id="vhfTs4uLfoDrNSeXMX57-29" style="edgeStyle=orthogonalEdgeStyle;rounded=0;orthogonalLoop=1;jettySize=auto;html=1;exitX=1;exitY=0.5;exitDx=0;exitDy=0;" parent="1" source="vhfTs4uLfoDrNSeXMX57-20" target="vhfTs4uLfoDrNSeXMX57-20" edge="1">
          <mxGeometry relative="1" as="geometry" />
        </mxCell>
        <mxCell id="vhfTs4uLfoDrNSeXMX57-44" value="" style="shape=mxgraph.lean_mapping.electronic_info_flow_edge;html=1;rounded=0;exitX=0;exitY=0;exitDx=0;exitDy=0;entryX=1;entryY=0.5;entryDx=0;entryDy=0;" parent="1" source="UfLzplEeQjErC0nXBPUM-2" target="vhfTs4uLfoDrNSeXMX57-52" edge="1">
          <mxGeometry width="160" relative="1" as="geometry">
            <mxPoint x="215" y="70" as="sourcePoint" />
            <mxPoint x="270" y="15" as="targetPoint" />
          </mxGeometry>
        </mxCell>
        <mxCell id="vhfTs4uLfoDrNSeXMX57-45" value="&lt;span style=&quot;font-size: 8px;&quot;&gt;Zatvaranje prozora&lt;/span&gt;" style="text;html=1;align=center;verticalAlign=middle;whiteSpace=wrap;rounded=0;" parent="1" vertex="1">
          <mxGeometry x="240" y="17" width="80" height="40" as="geometry" />
        </mxCell>
        <mxCell id="vhfTs4uLfoDrNSeXMX57-49" value="" style="shape=mxgraph.lean_mapping.electronic_info_flow_edge;html=1;rounded=0;exitX=1;exitY=0.5;exitDx=0;exitDy=0;entryX=0;entryY=0.25;entryDx=0;entryDy=0;" parent="1" source="vhfTs4uLfoDrNSeXMX57-20" target="C6iiVPVNQVPx3NPx2yUD-11" edge="1">
          <mxGeometry width="160" relative="1" as="geometry">
            <mxPoint x="40" y="480" as="sourcePoint" />
            <mxPoint x="202.92893218813447" y="452.9289321881347" as="targetPoint" />
          </mxGeometry>
        </mxCell>
        <mxCell id="vhfTs4uLfoDrNSeXMX57-50" value="" style="shape=mxgraph.lean_mapping.electronic_info_flow_edge;html=1;rounded=0;exitX=1;exitY=0.5;exitDx=0;exitDy=0;entryX=1;entryY=0.25;entryDx=0;entryDy=0;" parent="1" source="vhfTs4uLfoDrNSeXMX57-21" target="C6iiVPVNQVPx3NPx2yUD-11" edge="1">
          <mxGeometry width="160" relative="1" as="geometry">
            <mxPoint x="300" y="440" as="sourcePoint" />
            <mxPoint x="217.07106781186553" y="452.92893218813424" as="targetPoint" />
          </mxGeometry>
        </mxCell>
        <mxCell id="vhfTs4uLfoDrNSeXMX57-51" value="&lt;span style=&quot;font-size: 8px;&quot;&gt;Zatvaranje prozora&lt;/span&gt;" style="text;html=1;align=center;verticalAlign=middle;whiteSpace=wrap;rounded=0;" parent="1" vertex="1">
          <mxGeometry x="-10" y="430" width="80" height="40" as="geometry" />
        </mxCell>
        <mxCell id="vhfTs4uLfoDrNSeXMX57-52" value="A" style="ellipse;" parent="1" vertex="1">
          <mxGeometry x="190" y="30" width="20" height="20" as="geometry" />
        </mxCell>
        <mxCell id="vhfTs4uLfoDrNSeXMX57-55" value="" style="ellipse;html=1;shape=endState;fillColor=strokeColor;" parent="1" vertex="1">
          <mxGeometry x="210" y="520" width="20" height="20" as="geometry" />
        </mxCell>
        <mxCell id="vhfTs4uLfoDrNSeXMX57-64" style="edgeStyle=orthogonalEdgeStyle;rounded=0;orthogonalLoop=1;jettySize=auto;html=1;exitX=1;exitY=0.5;exitDx=0;exitDy=0;entryX=0;entryY=0.5;entryDx=0;entryDy=0;" parent="1" source="vhfTs4uLfoDrNSeXMX57-61" target="SlhhQhtwIUIpSkklSuzA-18" edge="1">
          <mxGeometry relative="1" as="geometry" />
        </mxCell>
        <mxCell id="vhfTs4uLfoDrNSeXMX57-78" style="edgeStyle=orthogonalEdgeStyle;rounded=0;orthogonalLoop=1;jettySize=auto;html=1;exitX=0.5;exitY=0;exitDx=0;exitDy=0;entryX=0;entryY=0.5;entryDx=0;entryDy=0;" parent="1" source="vhfTs4uLfoDrNSeXMX57-61" target="UfLzplEeQjErC0nXBPUM-2" edge="1">
          <mxGeometry relative="1" as="geometry">
            <mxPoint x="220.26315789473688" y="80" as="targetPoint" />
          </mxGeometry>
        </mxCell>
        <mxCell id="vhfTs4uLfoDrNSeXMX57-61" value="&lt;font style=&quot;font-size: 8px;&quot;&gt;Povratak na&lt;/font&gt;&lt;div&gt;&lt;font style=&quot;font-size: 8px;&quot;&gt;analizu?&lt;/font&gt;&lt;/div&gt;" style="rhombus;whiteSpace=wrap;html=1;fontColor=#000000;fillColor=#FFFFFF;strokeColor=#000000;" parent="1" vertex="1">
          <mxGeometry x="170" y="150" width="100" height="60" as="geometry" />
        </mxCell>
        <mxCell id="vhfTs4uLfoDrNSeXMX57-65" value="&lt;span style=&quot;font-size: 8px;&quot;&gt;Ne&lt;/span&gt;" style="text;html=1;align=center;verticalAlign=middle;whiteSpace=wrap;rounded=0;" parent="1" vertex="1">
          <mxGeometry x="190" y="120" width="80" height="40" as="geometry" />
        </mxCell>
        <mxCell id="vhfTs4uLfoDrNSeXMX57-66" value="&lt;span style=&quot;font-size: 8px;&quot;&gt;Da&lt;/span&gt;" style="text;html=1;align=center;verticalAlign=middle;whiteSpace=wrap;rounded=0;" parent="1" vertex="1">
          <mxGeometry x="240" y="150" width="80" height="40" as="geometry" />
        </mxCell>
        <mxCell id="vhfTs4uLfoDrNSeXMX57-67" value="&lt;span style=&quot;font-size: 8px;&quot;&gt;Zatvaranje prozora&lt;/span&gt;" style="text;html=1;align=center;verticalAlign=middle;whiteSpace=wrap;rounded=0;" parent="1" vertex="1">
          <mxGeometry x="340" y="430" width="80" height="40" as="geometry" />
        </mxCell>
        <mxCell id="vhfTs4uLfoDrNSeXMX57-86" style="edgeStyle=orthogonalEdgeStyle;rounded=0;orthogonalLoop=1;jettySize=auto;html=1;exitX=0.5;exitY=1;exitDx=0;exitDy=0;entryX=0.5;entryY=0;entryDx=0;entryDy=0;" parent="1" source="vhfTs4uLfoDrNSeXMX57-85" target="C6iiVPVNQVPx3NPx2yUD-11" edge="1">
          <mxGeometry relative="1" as="geometry" />
        </mxCell>
        <mxCell id="vhfTs4uLfoDrNSeXMX57-85" value="A" style="ellipse;" parent="1" vertex="1">
          <mxGeometry x="210" y="400" width="20" height="20" as="geometry" />
        </mxCell>
      </root>
    </mxGraphModel>
  </diagram>
  <diagram id="8BnHcptafvAXg0p8ehwV" name="State machine diagram">
    <mxGraphModel dx="1219" dy="1860" grid="1" gridSize="10" guides="1" tooltips="1" connect="1" arrows="1" fold="1" page="1" pageScale="1" pageWidth="827" pageHeight="1169" math="0" shadow="0">
      <root>
        <mxCell id="0" />
        <mxCell id="1" parent="0" />
        <mxCell id="5rt2f1bjHf6EhHzXH5f--42" value="&lt;div&gt;&lt;font style=&quot;font-size: 16px;&quot;&gt;&lt;br&gt;&lt;/font&gt;&lt;/div&gt;&lt;font style=&quot;font-size: 16px;&quot;&gt;&lt;div&gt;&lt;span style=&quot;background-color: initial;&quot;&gt;&lt;span style=&quot;white-space: pre;&quot;&gt;&#x9;&lt;/span&gt;Proces model&lt;/span&gt;&lt;br&gt;&lt;/div&gt;&lt;/font&gt;" style="html=1;align=left;verticalAlign=top;rounded=1;absoluteArcSize=1;arcSize=40;dashed=0;whiteSpace=wrap;shadow=0;glass=0;" parent="1" vertex="1">
          <mxGeometry x="120" y="120" width="560" height="850" as="geometry" />
        </mxCell>
        <mxCell id="5rt2f1bjHf6EhHzXH5f--66" style="edgeStyle=orthogonalEdgeStyle;rounded=0;orthogonalLoop=1;jettySize=auto;html=1;exitX=0.5;exitY=1;exitDx=0;exitDy=0;entryX=0.5;entryY=0;entryDx=0;entryDy=0;" parent="1" source="5rt2f1bjHf6EhHzXH5f--10" target="5rt2f1bjHf6EhHzXH5f--42" edge="1">
          <mxGeometry relative="1" as="geometry" />
        </mxCell>
        <mxCell id="5rt2f1bjHf6EhHzXH5f--10" value="&lt;span style=&quot;font-size: 8px;&quot;&gt;Stanje kreiranje procesa model&lt;/span&gt;&lt;div style=&quot;&quot;&gt;&lt;span style=&quot;font-size: 8px;&quot;&gt;exit / pokretanje procesa&lt;/span&gt;&lt;/div&gt;" style="html=1;align=center;verticalAlign=top;rounded=1;absoluteArcSize=1;arcSize=40;dashed=0;whiteSpace=wrap;shadow=0;glass=0;" parent="1" vertex="1">
          <mxGeometry x="320" y="19" width="160" height="60" as="geometry" />
        </mxCell>
        <mxCell id="5rt2f1bjHf6EhHzXH5f--43" style="edgeStyle=orthogonalEdgeStyle;rounded=0;orthogonalLoop=1;jettySize=auto;html=1;exitX=0.5;exitY=1;exitDx=0;exitDy=0;entryX=0.5;entryY=0;entryDx=0;entryDy=0;" parent="1" source="5rt2f1bjHf6EhHzXH5f--13" target="5rt2f1bjHf6EhHzXH5f--10" edge="1">
          <mxGeometry relative="1" as="geometry" />
        </mxCell>
        <mxCell id="5rt2f1bjHf6EhHzXH5f--13" value="" style="ellipse;fillColor=strokeColor;html=1;" parent="1" vertex="1">
          <mxGeometry x="390" y="-40" width="20" height="20" as="geometry" />
        </mxCell>
        <mxCell id="5rt2f1bjHf6EhHzXH5f--45" style="edgeStyle=orthogonalEdgeStyle;rounded=0;orthogonalLoop=1;jettySize=auto;html=1;exitX=0.5;exitY=1;exitDx=0;exitDy=0;entryX=0.5;entryY=0;entryDx=0;entryDy=0;" parent="1" source="5rt2f1bjHf6EhHzXH5f--36" target="5rt2f1bjHf6EhHzXH5f--37" edge="1">
          <mxGeometry relative="1" as="geometry" />
        </mxCell>
        <mxCell id="5rt2f1bjHf6EhHzXH5f--57" style="edgeStyle=orthogonalEdgeStyle;rounded=0;orthogonalLoop=1;jettySize=auto;html=1;exitX=1;exitY=0.5;exitDx=0;exitDy=0;entryX=1;entryY=0.5;entryDx=0;entryDy=0;" parent="1" source="5rt2f1bjHf6EhHzXH5f--36" target="5rt2f1bjHf6EhHzXH5f--55" edge="1">
          <mxGeometry relative="1" as="geometry">
            <Array as="points">
              <mxPoint x="560" y="230" />
              <mxPoint x="560" y="680" />
            </Array>
          </mxGeometry>
        </mxCell>
        <mxCell id="5rt2f1bjHf6EhHzXH5f--90" style="edgeStyle=orthogonalEdgeStyle;rounded=0;orthogonalLoop=1;jettySize=auto;html=1;exitX=0;exitY=0.5;exitDx=0;exitDy=0;entryX=1;entryY=0.5;entryDx=0;entryDy=0;" parent="1" source="5rt2f1bjHf6EhHzXH5f--36" target="5rt2f1bjHf6EhHzXH5f--89" edge="1">
          <mxGeometry relative="1" as="geometry" />
        </mxCell>
        <mxCell id="5rt2f1bjHf6EhHzXH5f--36" value="&lt;div&gt;&lt;span style=&quot;font-size: 8px;&quot;&gt;Stanje provere spremnosti modela&lt;/span&gt;&lt;/div&gt;&lt;div&gt;&lt;span style=&quot;font-size: 8px; background-color: initial;&quot;&gt;do / proveri da li je model sačuvan&lt;/span&gt;&lt;br&gt;&lt;/div&gt;" style="html=1;align=center;verticalAlign=top;rounded=1;absoluteArcSize=1;arcSize=40;dashed=0;whiteSpace=wrap;shadow=0;glass=0;" parent="1" vertex="1">
          <mxGeometry x="320" y="200" width="160" height="60" as="geometry" />
        </mxCell>
        <mxCell id="5rt2f1bjHf6EhHzXH5f--50" style="edgeStyle=orthogonalEdgeStyle;rounded=0;orthogonalLoop=1;jettySize=auto;html=1;exitX=0.5;exitY=1;exitDx=0;exitDy=0;entryX=0.5;entryY=0;entryDx=0;entryDy=0;" parent="1" source="5rt2f1bjHf6EhHzXH5f--37" target="5rt2f1bjHf6EhHzXH5f--38" edge="1">
          <mxGeometry relative="1" as="geometry" />
        </mxCell>
        <mxCell id="5rt2f1bjHf6EhHzXH5f--94" style="edgeStyle=orthogonalEdgeStyle;rounded=0;orthogonalLoop=1;jettySize=auto;html=1;exitX=0;exitY=0.5;exitDx=0;exitDy=0;entryX=1;entryY=0.5;entryDx=0;entryDy=0;" parent="1" source="5rt2f1bjHf6EhHzXH5f--37" target="5rt2f1bjHf6EhHzXH5f--93" edge="1">
          <mxGeometry relative="1" as="geometry" />
        </mxCell>
        <mxCell id="5rt2f1bjHf6EhHzXH5f--37" value="&lt;span style=&quot;font-size: 8px;&quot;&gt;Stanje učitavanja podataka&lt;/span&gt;&lt;div&gt;&lt;span style=&quot;font-size: 8px;&quot;&gt;entry /&amp;nbsp; učitaj podatke za treniranje&lt;/span&gt;&lt;/div&gt;" style="html=1;align=center;verticalAlign=top;rounded=1;absoluteArcSize=1;arcSize=40;dashed=0;whiteSpace=wrap;shadow=0;glass=0;" parent="1" vertex="1">
          <mxGeometry x="320" y="320" width="160" height="60" as="geometry" />
        </mxCell>
        <mxCell id="5rt2f1bjHf6EhHzXH5f--53" style="edgeStyle=orthogonalEdgeStyle;rounded=0;orthogonalLoop=1;jettySize=auto;html=1;exitX=0.5;exitY=1;exitDx=0;exitDy=0;entryX=0.5;entryY=0;entryDx=0;entryDy=0;" parent="1" source="5rt2f1bjHf6EhHzXH5f--38" target="5rt2f1bjHf6EhHzXH5f--39" edge="1">
          <mxGeometry relative="1" as="geometry" />
        </mxCell>
        <mxCell id="5rt2f1bjHf6EhHzXH5f--97" style="edgeStyle=orthogonalEdgeStyle;rounded=0;orthogonalLoop=1;jettySize=auto;html=1;exitX=0;exitY=0.5;exitDx=0;exitDy=0;entryX=1;entryY=0.5;entryDx=0;entryDy=0;" parent="1" source="5rt2f1bjHf6EhHzXH5f--38" target="5rt2f1bjHf6EhHzXH5f--96" edge="1">
          <mxGeometry relative="1" as="geometry" />
        </mxCell>
        <mxCell id="5rt2f1bjHf6EhHzXH5f--38" value="&lt;span style=&quot;font-size: 8px;&quot;&gt;Stanje treniranja modela&lt;/span&gt;&lt;div&gt;&lt;span style=&quot;font-size: 8px; background-color: initial;&quot;&gt;entry / započni treniranje&lt;/span&gt;&lt;br&gt;&lt;/div&gt;" style="html=1;align=center;verticalAlign=top;rounded=1;absoluteArcSize=1;arcSize=40;dashed=0;whiteSpace=wrap;shadow=0;glass=0;" parent="1" vertex="1">
          <mxGeometry x="320" y="440" width="160" height="60" as="geometry" />
        </mxCell>
        <mxCell id="5rt2f1bjHf6EhHzXH5f--58" style="edgeStyle=orthogonalEdgeStyle;rounded=0;orthogonalLoop=1;jettySize=auto;html=1;exitX=0.5;exitY=1;exitDx=0;exitDy=0;entryX=0.5;entryY=0;entryDx=0;entryDy=0;" parent="1" source="5rt2f1bjHf6EhHzXH5f--39" target="5rt2f1bjHf6EhHzXH5f--55" edge="1">
          <mxGeometry relative="1" as="geometry" />
        </mxCell>
        <mxCell id="5rt2f1bjHf6EhHzXH5f--100" style="edgeStyle=orthogonalEdgeStyle;rounded=0;orthogonalLoop=1;jettySize=auto;html=1;exitX=0;exitY=0.5;exitDx=0;exitDy=0;entryX=1;entryY=0.5;entryDx=0;entryDy=0;" parent="1" source="5rt2f1bjHf6EhHzXH5f--39" target="5rt2f1bjHf6EhHzXH5f--99" edge="1">
          <mxGeometry relative="1" as="geometry" />
        </mxCell>
        <mxCell id="5rt2f1bjHf6EhHzXH5f--39" value="&lt;span style=&quot;font-size: 8px;&quot;&gt;Stanje evaluacije modela&lt;/span&gt;&lt;div&gt;&lt;span style=&quot;font-size: 8px;&quot;&gt;entry / započni evaluaciju&lt;/span&gt;&lt;/div&gt;" style="html=1;align=center;verticalAlign=top;rounded=1;absoluteArcSize=1;arcSize=40;dashed=0;whiteSpace=wrap;shadow=0;glass=0;" parent="1" vertex="1">
          <mxGeometry x="320" y="560" width="160" height="60" as="geometry" />
        </mxCell>
        <mxCell id="5rt2f1bjHf6EhHzXH5f--71" style="edgeStyle=orthogonalEdgeStyle;rounded=0;orthogonalLoop=1;jettySize=auto;html=1;exitX=0.5;exitY=1;exitDx=0;exitDy=0;entryX=0.5;entryY=0;entryDx=0;entryDy=0;" parent="1" source="5rt2f1bjHf6EhHzXH5f--41" target="5rt2f1bjHf6EhHzXH5f--70" edge="1">
          <mxGeometry relative="1" as="geometry" />
        </mxCell>
        <mxCell id="5rt2f1bjHf6EhHzXH5f--107" style="edgeStyle=orthogonalEdgeStyle;rounded=0;orthogonalLoop=1;jettySize=auto;html=1;exitX=1;exitY=0.5;exitDx=0;exitDy=0;entryX=0;entryY=0.5;entryDx=0;entryDy=0;" parent="1" source="5rt2f1bjHf6EhHzXH5f--41" target="5rt2f1bjHf6EhHzXH5f--106" edge="1">
          <mxGeometry relative="1" as="geometry" />
        </mxCell>
        <mxCell id="5rt2f1bjHf6EhHzXH5f--41" value="&lt;span style=&quot;font-size: 8px;&quot;&gt;Stanje spremnosti&lt;/span&gt;&lt;div&gt;&lt;span style=&quot;font-size: 8px; background-color: initial;&quot;&gt;do / proveri da li u redu podataci postoje&lt;/span&gt;&lt;br&gt;&lt;/div&gt;&lt;div&gt;&lt;span style=&quot;font-size: 8px; background-color: initial;&quot;&gt;exit / učitaj podatke iz reda&lt;/span&gt;&lt;/div&gt;" style="html=1;align=center;verticalAlign=top;rounded=1;absoluteArcSize=1;arcSize=40;dashed=0;whiteSpace=wrap;shadow=0;glass=0;" parent="1" vertex="1">
          <mxGeometry x="320" y="740" width="160" height="70" as="geometry" />
        </mxCell>
        <mxCell id="5rt2f1bjHf6EhHzXH5f--47" value="&lt;font style=&quot;font-size: 8px;&quot;&gt;[ ne postoji ]&lt;/font&gt;" style="text;html=1;align=left;verticalAlign=middle;whiteSpace=wrap;rounded=0;" parent="1" vertex="1">
          <mxGeometry x="400" y="250" width="86" height="30" as="geometry" />
        </mxCell>
        <mxCell id="5rt2f1bjHf6EhHzXH5f--51" value="&lt;font style=&quot;font-size: 8px;&quot;&gt;[ podaci su učitani ]&amp;nbsp;&lt;/font&gt;" style="text;html=1;align=left;verticalAlign=middle;whiteSpace=wrap;rounded=0;" parent="1" vertex="1">
          <mxGeometry x="400" y="370" width="110" height="30" as="geometry" />
        </mxCell>
        <mxCell id="5rt2f1bjHf6EhHzXH5f--54" value="&lt;font style=&quot;font-size: 8px;&quot;&gt;[ treniranje je završeno ]&amp;nbsp;&lt;/font&gt;" style="text;html=1;align=left;verticalAlign=middle;whiteSpace=wrap;rounded=0;" parent="1" vertex="1">
          <mxGeometry x="400" y="490" width="110" height="30" as="geometry" />
        </mxCell>
        <mxCell id="5rt2f1bjHf6EhHzXH5f--62" style="edgeStyle=orthogonalEdgeStyle;rounded=0;orthogonalLoop=1;jettySize=auto;html=1;exitX=0.5;exitY=1;exitDx=0;exitDy=0;entryX=0.5;entryY=0;entryDx=0;entryDy=0;" parent="1" source="5rt2f1bjHf6EhHzXH5f--55" target="5rt2f1bjHf6EhHzXH5f--41" edge="1">
          <mxGeometry relative="1" as="geometry" />
        </mxCell>
        <mxCell id="5rt2f1bjHf6EhHzXH5f--55" value="" style="rhombus;whiteSpace=wrap;html=1;" parent="1" vertex="1">
          <mxGeometry x="390" y="670" width="20" height="20" as="geometry" />
        </mxCell>
        <mxCell id="5rt2f1bjHf6EhHzXH5f--59" value="&lt;font style=&quot;font-size: 8px;&quot;&gt;[ evaluacija je završena ]&amp;nbsp;&lt;/font&gt;" style="text;html=1;align=left;verticalAlign=middle;whiteSpace=wrap;rounded=0;" parent="1" vertex="1">
          <mxGeometry x="400" y="610" width="110" height="30" as="geometry" />
        </mxCell>
        <mxCell id="5rt2f1bjHf6EhHzXH5f--63" value="&lt;font style=&quot;font-size: 8px;&quot;&gt;[ postoji ]&lt;/font&gt;" style="text;html=1;align=left;verticalAlign=middle;whiteSpace=wrap;rounded=0;" parent="1" vertex="1">
          <mxGeometry x="480" y="206" width="86" height="30" as="geometry" />
        </mxCell>
        <mxCell id="5rt2f1bjHf6EhHzXH5f--67" style="edgeStyle=orthogonalEdgeStyle;rounded=0;orthogonalLoop=1;jettySize=auto;html=1;exitX=0.5;exitY=1;exitDx=0;exitDy=0;entryX=0.5;entryY=0;entryDx=0;entryDy=0;" parent="1" source="5rt2f1bjHf6EhHzXH5f--65" target="5rt2f1bjHf6EhHzXH5f--36" edge="1">
          <mxGeometry relative="1" as="geometry" />
        </mxCell>
        <mxCell id="5rt2f1bjHf6EhHzXH5f--65" value="" style="ellipse;fillColor=strokeColor;html=1;" parent="1" vertex="1">
          <mxGeometry x="390" y="140" width="20" height="20" as="geometry" />
        </mxCell>
        <mxCell id="5rt2f1bjHf6EhHzXH5f--72" style="edgeStyle=orthogonalEdgeStyle;rounded=0;orthogonalLoop=1;jettySize=auto;html=1;exitX=0;exitY=0.5;exitDx=0;exitDy=0;entryX=0;entryY=0.5;entryDx=0;entryDy=0;" parent="1" source="5rt2f1bjHf6EhHzXH5f--70" target="5rt2f1bjHf6EhHzXH5f--55" edge="1">
          <mxGeometry relative="1" as="geometry">
            <Array as="points">
              <mxPoint x="240" y="905" />
              <mxPoint x="240" y="680" />
            </Array>
          </mxGeometry>
        </mxCell>
        <mxCell id="5rt2f1bjHf6EhHzXH5f--103" style="edgeStyle=orthogonalEdgeStyle;rounded=0;orthogonalLoop=1;jettySize=auto;html=1;exitX=1;exitY=0.5;exitDx=0;exitDy=0;entryX=0;entryY=0.5;entryDx=0;entryDy=0;" parent="1" source="5rt2f1bjHf6EhHzXH5f--70" target="5rt2f1bjHf6EhHzXH5f--102" edge="1">
          <mxGeometry relative="1" as="geometry" />
        </mxCell>
        <mxCell id="5rt2f1bjHf6EhHzXH5f--70" value="&lt;span style=&quot;font-size: 8px;&quot;&gt;Stanje predvidjanja&lt;/span&gt;&lt;div&gt;&lt;span style=&quot;font-size: 8px; background-color: initial;&quot;&gt;entry / započni predvidjanje&lt;/span&gt;&lt;br&gt;&lt;/div&gt;&lt;div&gt;&lt;span style=&quot;font-size: 8px;&quot;&gt;exit / pošlji predvidjanje nazad u red&lt;/span&gt;&lt;/div&gt;" style="html=1;align=center;verticalAlign=top;rounded=1;absoluteArcSize=1;arcSize=40;dashed=0;whiteSpace=wrap;shadow=0;glass=0;" parent="1" vertex="1">
          <mxGeometry x="320" y="870" width="160" height="70" as="geometry" />
        </mxCell>
        <mxCell id="5rt2f1bjHf6EhHzXH5f--73" value="&lt;font style=&quot;font-size: 8px;&quot;&gt;[ Postoji podatak ]&amp;nbsp;&lt;/font&gt;" style="text;html=1;align=left;verticalAlign=middle;whiteSpace=wrap;rounded=0;" parent="1" vertex="1">
          <mxGeometry x="400" y="800" width="110" height="30" as="geometry" />
        </mxCell>
        <mxCell id="5rt2f1bjHf6EhHzXH5f--74" value="&lt;font style=&quot;font-size: 8px;&quot;&gt;[ Podatak je poslat ]&amp;nbsp;&lt;/font&gt;" style="text;html=1;align=right;verticalAlign=middle;whiteSpace=wrap;rounded=0;" parent="1" vertex="1">
          <mxGeometry x="211" y="881" width="110" height="30" as="geometry" />
        </mxCell>
        <mxCell id="5rt2f1bjHf6EhHzXH5f--76" value="" style="endArrow=none;html=1;rounded=0;" parent="1" edge="1">
          <mxGeometry width="50" height="50" relative="1" as="geometry">
            <mxPoint x="320" y="41" as="sourcePoint" />
            <mxPoint x="480" y="41" as="targetPoint" />
          </mxGeometry>
        </mxCell>
        <mxCell id="5rt2f1bjHf6EhHzXH5f--77" value="" style="endArrow=none;html=1;rounded=0;" parent="1" edge="1">
          <mxGeometry width="50" height="50" relative="1" as="geometry">
            <mxPoint x="320" y="222.82" as="sourcePoint" />
            <mxPoint x="480" y="222.82" as="targetPoint" />
          </mxGeometry>
        </mxCell>
        <mxCell id="5rt2f1bjHf6EhHzXH5f--78" value="" style="endArrow=none;html=1;rounded=0;" parent="1" edge="1">
          <mxGeometry width="50" height="50" relative="1" as="geometry">
            <mxPoint x="320" y="342" as="sourcePoint" />
            <mxPoint x="480" y="342" as="targetPoint" />
          </mxGeometry>
        </mxCell>
        <mxCell id="5rt2f1bjHf6EhHzXH5f--79" value="" style="endArrow=none;html=1;rounded=0;" parent="1" edge="1">
          <mxGeometry width="50" height="50" relative="1" as="geometry">
            <mxPoint x="320" y="462" as="sourcePoint" />
            <mxPoint x="480" y="462" as="targetPoint" />
          </mxGeometry>
        </mxCell>
        <mxCell id="5rt2f1bjHf6EhHzXH5f--80" value="" style="endArrow=none;html=1;rounded=0;" parent="1" edge="1">
          <mxGeometry width="50" height="50" relative="1" as="geometry">
            <mxPoint x="320" y="582" as="sourcePoint" />
            <mxPoint x="480" y="582" as="targetPoint" />
          </mxGeometry>
        </mxCell>
        <mxCell id="5rt2f1bjHf6EhHzXH5f--81" value="" style="endArrow=none;html=1;rounded=0;" parent="1" edge="1">
          <mxGeometry width="50" height="50" relative="1" as="geometry">
            <mxPoint x="320" y="762" as="sourcePoint" />
            <mxPoint x="480" y="762" as="targetPoint" />
          </mxGeometry>
        </mxCell>
        <mxCell id="5rt2f1bjHf6EhHzXH5f--82" value="" style="endArrow=none;html=1;rounded=0;" parent="1" edge="1">
          <mxGeometry width="50" height="50" relative="1" as="geometry">
            <mxPoint x="320" y="892" as="sourcePoint" />
            <mxPoint x="480" y="892" as="targetPoint" />
          </mxGeometry>
        </mxCell>
        <mxCell id="5rt2f1bjHf6EhHzXH5f--89" value="" style="ellipse;html=1;shape=endState;fillColor=strokeColor;" parent="1" vertex="1">
          <mxGeometry x="160" y="220" width="20" height="20" as="geometry" />
        </mxCell>
        <mxCell id="5rt2f1bjHf6EhHzXH5f--91" value="&lt;font style=&quot;font-size: 8px;&quot;&gt;izlazak iz aplikacije&lt;/font&gt;" style="text;html=1;align=center;verticalAlign=middle;whiteSpace=wrap;rounded=0;" parent="1" vertex="1">
          <mxGeometry x="190" y="212" width="130" height="20" as="geometry" />
        </mxCell>
        <mxCell id="5rt2f1bjHf6EhHzXH5f--93" value="" style="ellipse;html=1;shape=endState;fillColor=strokeColor;" parent="1" vertex="1">
          <mxGeometry x="160" y="340" width="20" height="20" as="geometry" />
        </mxCell>
        <mxCell id="5rt2f1bjHf6EhHzXH5f--95" value="&lt;font style=&quot;font-size: 8px;&quot;&gt;Izlazak iz aplikacje&lt;/font&gt;&lt;div&gt;&lt;span style=&quot;font-size: 8px;&quot;&gt;Prekoračenje memorije&lt;/span&gt;&lt;/div&gt;" style="text;html=1;align=center;verticalAlign=middle;whiteSpace=wrap;rounded=0;" parent="1" vertex="1">
          <mxGeometry x="189" y="320" width="130" height="30" as="geometry" />
        </mxCell>
        <mxCell id="5rt2f1bjHf6EhHzXH5f--96" value="" style="ellipse;html=1;shape=endState;fillColor=strokeColor;" parent="1" vertex="1">
          <mxGeometry x="160" y="460" width="20" height="20" as="geometry" />
        </mxCell>
        <mxCell id="5rt2f1bjHf6EhHzXH5f--98" value="&lt;font style=&quot;font-size: 8px;&quot;&gt;Izlazak iz aplikacje&lt;/font&gt;&lt;div&gt;&lt;span style=&quot;font-size: 8px;&quot;&gt;Prekoračenje memorije&lt;/span&gt;&lt;/div&gt;&lt;div&gt;&lt;span style=&quot;font-size: 8px;&quot;&gt;Pucanje kôda&lt;/span&gt;&lt;/div&gt;" style="text;html=1;align=center;verticalAlign=middle;whiteSpace=wrap;rounded=0;" parent="1" vertex="1">
          <mxGeometry x="189" y="423" width="130" height="50" as="geometry" />
        </mxCell>
        <mxCell id="5rt2f1bjHf6EhHzXH5f--99" value="" style="ellipse;html=1;shape=endState;fillColor=strokeColor;" parent="1" vertex="1">
          <mxGeometry x="160" y="580" width="20" height="20" as="geometry" />
        </mxCell>
        <mxCell id="5rt2f1bjHf6EhHzXH5f--101" value="&lt;font style=&quot;font-size: 8px;&quot;&gt;Izlazak iz aplikacje&lt;/font&gt;&lt;div&gt;&lt;span style=&quot;font-size: 8px;&quot;&gt;Pucanje kôda&lt;/span&gt;&lt;/div&gt;" style="text;html=1;align=center;verticalAlign=middle;whiteSpace=wrap;rounded=0;" parent="1" vertex="1">
          <mxGeometry x="190" y="560" width="130" height="30" as="geometry" />
        </mxCell>
        <mxCell id="5rt2f1bjHf6EhHzXH5f--102" value="" style="ellipse;html=1;shape=endState;fillColor=strokeColor;" parent="1" vertex="1">
          <mxGeometry x="620" y="895" width="20" height="20" as="geometry" />
        </mxCell>
        <mxCell id="5rt2f1bjHf6EhHzXH5f--104" value="&lt;font style=&quot;font-size: 8px;&quot;&gt;Izlazak iz aplikacje&lt;/font&gt;&lt;div&gt;&lt;span style=&quot;font-size: 8px;&quot;&gt;Pucanje kôda&lt;/span&gt;&lt;/div&gt;&lt;div&gt;&lt;span style=&quot;font-size: 8px;&quot;&gt;Prekoračenje bafera&lt;/span&gt;&lt;/div&gt;" style="text;html=1;align=center;verticalAlign=middle;whiteSpace=wrap;rounded=0;" parent="1" vertex="1">
          <mxGeometry x="480" y="858" width="130" height="50" as="geometry" />
        </mxCell>
        <mxCell id="5rt2f1bjHf6EhHzXH5f--106" value="" style="ellipse;html=1;shape=endState;fillColor=strokeColor;" parent="1" vertex="1">
          <mxGeometry x="620" y="765" width="20" height="20" as="geometry" />
        </mxCell>
        <mxCell id="5rt2f1bjHf6EhHzXH5f--108" value="&lt;font style=&quot;font-size: 8px;&quot;&gt;Izlazak iz aplikacje&lt;/font&gt;" style="text;html=1;align=center;verticalAlign=middle;whiteSpace=wrap;rounded=0;" parent="1" vertex="1">
          <mxGeometry x="480" y="752" width="130" height="30" as="geometry" />
        </mxCell>
        <mxCell id="TTDRSedDA5GhJNaUdFOJ-1" value="" style="rounded=0;whiteSpace=wrap;html=1;fillColor=none;strokeColor=none;" vertex="1" parent="1">
          <mxGeometry x="91" y="-50" width="619" height="1030" as="geometry" />
        </mxCell>
      </root>
    </mxGraphModel>
  </diagram>
  <diagram id="XTlz0nkkVLoFD-xtnd7l" name="Package diagram">
    <mxGraphModel dx="2473" dy="933" grid="1" gridSize="10" guides="1" tooltips="1" connect="1" arrows="1" fold="1" page="1" pageScale="1" pageWidth="827" pageHeight="1169" math="0" shadow="0">
      <root>
        <mxCell id="0" />
        <mxCell id="1" parent="0" />
        <mxCell id="4PkOEW9MbShfaQD_qWlL-86" value="Main module" style="shape=folder;fontStyle=1;tabWidth=110;tabHeight=30;tabPosition=left;html=1;boundedLbl=1;labelInHeader=1;container=1;collapsible=0;whiteSpace=wrap;" parent="1" vertex="1">
          <mxGeometry x="-40" y="40" width="800" height="630" as="geometry" />
        </mxCell>
        <mxCell id="4PkOEW9MbShfaQD_qWlL-87" value="" style="html=1;strokeColor=none;resizeWidth=1;resizeHeight=1;fillColor=none;part=1;connectable=0;allowArrows=0;deletable=0;whiteSpace=wrap;" parent="4PkOEW9MbShfaQD_qWlL-86" vertex="1">
          <mxGeometry width="800" height="441" relative="1" as="geometry">
            <mxPoint y="30" as="offset" />
          </mxGeometry>
        </mxCell>
        <mxCell id="4PkOEW9MbShfaQD_qWlL-8" value="mutiprocessing" style="shape=folder;fontStyle=1;tabWidth=110;tabHeight=30;tabPosition=left;html=1;boundedLbl=1;labelInHeader=1;container=1;collapsible=0;recursiveResize=0;whiteSpace=wrap;" parent="1" vertex="1">
          <mxGeometry x="370" y="370" width="160" height="120" as="geometry" />
        </mxCell>
        <mxCell id="4PkOEW9MbShfaQD_qWlL-9" value="Process" style="html=1;whiteSpace=wrap;" parent="4PkOEW9MbShfaQD_qWlL-8" vertex="1">
          <mxGeometry width="110" height="30" relative="1" as="geometry">
            <mxPoint x="20" y="40" as="offset" />
          </mxGeometry>
        </mxCell>
        <mxCell id="4PkOEW9MbShfaQD_qWlL-10" value="Queue" style="html=1;whiteSpace=wrap;" parent="4PkOEW9MbShfaQD_qWlL-8" vertex="1">
          <mxGeometry x="20" y="80" width="110" height="30" as="geometry" />
        </mxCell>
        <mxCell id="4PkOEW9MbShfaQD_qWlL-11" value="copy" style="shape=folder;fontStyle=1;tabWidth=110;tabHeight=30;tabPosition=left;html=1;boundedLbl=1;labelInHeader=1;container=1;collapsible=0;recursiveResize=0;whiteSpace=wrap;" parent="1" vertex="1">
          <mxGeometry x="550" y="300" width="160" height="80" as="geometry" />
        </mxCell>
        <mxCell id="4PkOEW9MbShfaQD_qWlL-12" value="deepcopy" style="html=1;whiteSpace=wrap;" parent="4PkOEW9MbShfaQD_qWlL-11" vertex="1">
          <mxGeometry width="110" height="30" relative="1" as="geometry">
            <mxPoint x="25" y="40" as="offset" />
          </mxGeometry>
        </mxCell>
        <mxCell id="4PkOEW9MbShfaQD_qWlL-15" value="tkinter" style="shape=folder;fontStyle=1;tabWidth=110;tabHeight=30;tabPosition=left;html=1;boundedLbl=1;labelInHeader=1;container=1;collapsible=0;recursiveResize=0;whiteSpace=wrap;" parent="1" vertex="1">
          <mxGeometry x="190" y="300" width="160" height="320" as="geometry" />
        </mxCell>
        <mxCell id="4PkOEW9MbShfaQD_qWlL-16" value="filedialog" style="html=1;whiteSpace=wrap;" parent="4PkOEW9MbShfaQD_qWlL-15" vertex="1">
          <mxGeometry width="110" height="30" relative="1" as="geometry">
            <mxPoint x="20" y="40" as="offset" />
          </mxGeometry>
        </mxCell>
        <mxCell id="4PkOEW9MbShfaQD_qWlL-17" value="Tk" style="html=1;whiteSpace=wrap;" parent="4PkOEW9MbShfaQD_qWlL-15" vertex="1">
          <mxGeometry x="20" y="80" width="110" height="30" as="geometry" />
        </mxCell>
        <mxCell id="4PkOEW9MbShfaQD_qWlL-18" value="Label" style="html=1;whiteSpace=wrap;" parent="4PkOEW9MbShfaQD_qWlL-15" vertex="1">
          <mxGeometry x="20" y="120" width="110" height="30" as="geometry" />
        </mxCell>
        <mxCell id="4PkOEW9MbShfaQD_qWlL-23" value="Frame" style="html=1;whiteSpace=wrap;" parent="4PkOEW9MbShfaQD_qWlL-15" vertex="1">
          <mxGeometry x="20" y="160" width="110" height="30" as="geometry" />
        </mxCell>
        <mxCell id="4PkOEW9MbShfaQD_qWlL-24" value="Button" style="html=1;whiteSpace=wrap;" parent="4PkOEW9MbShfaQD_qWlL-15" vertex="1">
          <mxGeometry x="20" y="200" width="110" height="30" as="geometry" />
        </mxCell>
        <mxCell id="4PkOEW9MbShfaQD_qWlL-31" value="LEFT" style="html=1;whiteSpace=wrap;" parent="4PkOEW9MbShfaQD_qWlL-15" vertex="1">
          <mxGeometry x="20" y="240" width="110" height="30" as="geometry" />
        </mxCell>
        <mxCell id="4PkOEW9MbShfaQD_qWlL-32" value="RIGHT" style="html=1;whiteSpace=wrap;" parent="4PkOEW9MbShfaQD_qWlL-15" vertex="1">
          <mxGeometry x="20" y="280" width="110" height="30" as="geometry" />
        </mxCell>
        <mxCell id="4PkOEW9MbShfaQD_qWlL-33" value="screeninfo" style="shape=folder;fontStyle=1;tabWidth=110;tabHeight=30;tabPosition=left;html=1;boundedLbl=1;labelInHeader=1;container=1;collapsible=0;recursiveResize=0;whiteSpace=wrap;" parent="1" vertex="1">
          <mxGeometry x="10" y="300" width="160" height="80" as="geometry" />
        </mxCell>
        <mxCell id="4PkOEW9MbShfaQD_qWlL-34" value="get_monitors" style="html=1;whiteSpace=wrap;" parent="4PkOEW9MbShfaQD_qWlL-33" vertex="1">
          <mxGeometry width="110" height="30" relative="1" as="geometry">
            <mxPoint x="25" y="40" as="offset" />
          </mxGeometry>
        </mxCell>
        <mxCell id="4PkOEW9MbShfaQD_qWlL-35" value="pydicom" style="shape=folder;fontStyle=1;tabWidth=110;tabHeight=30;tabPosition=left;html=1;boundedLbl=1;labelInHeader=1;container=1;collapsible=0;recursiveResize=0;whiteSpace=wrap;" parent="1" vertex="1">
          <mxGeometry x="10" y="390" width="160" height="80" as="geometry" />
        </mxCell>
        <mxCell id="4PkOEW9MbShfaQD_qWlL-36" value="dcmread" style="html=1;whiteSpace=wrap;" parent="4PkOEW9MbShfaQD_qWlL-35" vertex="1">
          <mxGeometry width="110" height="30" relative="1" as="geometry">
            <mxPoint x="25" y="40" as="offset" />
          </mxGeometry>
        </mxCell>
        <mxCell id="4PkOEW9MbShfaQD_qWlL-37" value="PIL" style="shape=folder;fontStyle=1;tabWidth=110;tabHeight=30;tabPosition=left;html=1;boundedLbl=1;labelInHeader=1;container=1;collapsible=0;recursiveResize=0;whiteSpace=wrap;" parent="1" vertex="1">
          <mxGeometry x="370" y="500" width="160" height="120" as="geometry" />
        </mxCell>
        <mxCell id="4PkOEW9MbShfaQD_qWlL-38" value="Image" style="html=1;whiteSpace=wrap;" parent="4PkOEW9MbShfaQD_qWlL-37" vertex="1">
          <mxGeometry width="110" height="30" relative="1" as="geometry">
            <mxPoint x="20" y="40" as="offset" />
          </mxGeometry>
        </mxCell>
        <mxCell id="4PkOEW9MbShfaQD_qWlL-39" value="ImageTk" style="html=1;whiteSpace=wrap;" parent="4PkOEW9MbShfaQD_qWlL-37" vertex="1">
          <mxGeometry x="20" y="80" width="110" height="30" as="geometry" />
        </mxCell>
        <mxCell id="4PkOEW9MbShfaQD_qWlL-40" value="matplotlib" style="shape=folder;fontStyle=1;tabWidth=110;tabHeight=30;tabPosition=left;html=1;boundedLbl=1;labelInHeader=1;container=1;collapsible=0;recursiveResize=0;whiteSpace=wrap;" parent="1" vertex="1">
          <mxGeometry x="10" y="480" width="160" height="80" as="geometry" />
        </mxCell>
        <mxCell id="4PkOEW9MbShfaQD_qWlL-41" value="pyplot" style="html=1;whiteSpace=wrap;" parent="4PkOEW9MbShfaQD_qWlL-40" vertex="1">
          <mxGeometry width="110" height="30" relative="1" as="geometry">
            <mxPoint x="25" y="40" as="offset" />
          </mxGeometry>
        </mxCell>
        <mxCell id="4PkOEW9MbShfaQD_qWlL-42" value="os" style="shape=folder;fontStyle=1;tabWidth=110;tabHeight=30;tabPosition=left;html=1;boundedLbl=1;labelInHeader=1;container=1;collapsible=0;recursiveResize=0;whiteSpace=wrap;" parent="1" vertex="1">
          <mxGeometry x="550" y="480" width="160" height="80" as="geometry" />
        </mxCell>
        <mxCell id="4PkOEW9MbShfaQD_qWlL-44" value="&lt;font style=&quot;font-size: 20px;&quot;&gt;*&lt;/font&gt;" style="text;html=1;align=center;verticalAlign=middle;whiteSpace=wrap;rounded=0;" parent="4PkOEW9MbShfaQD_qWlL-42" vertex="1">
          <mxGeometry x="50" y="50" width="60" height="20" as="geometry" />
        </mxCell>
        <mxCell id="4PkOEW9MbShfaQD_qWlL-45" value="numpy" style="shape=folder;fontStyle=1;tabWidth=110;tabHeight=30;tabPosition=left;html=1;boundedLbl=1;labelInHeader=1;container=1;collapsible=0;recursiveResize=0;whiteSpace=wrap;" parent="1" vertex="1">
          <mxGeometry x="550" y="390" width="160" height="80" as="geometry" />
        </mxCell>
        <mxCell id="4PkOEW9MbShfaQD_qWlL-46" value="&lt;font style=&quot;font-size: 20px;&quot;&gt;*&lt;/font&gt;" style="text;html=1;align=center;verticalAlign=middle;whiteSpace=wrap;rounded=0;" parent="4PkOEW9MbShfaQD_qWlL-45" vertex="1">
          <mxGeometry x="50" y="50" width="60" height="20" as="geometry" />
        </mxCell>
        <mxCell id="4PkOEW9MbShfaQD_qWlL-47" value="tensorflow" style="shape=folder;fontStyle=1;tabWidth=110;tabHeight=30;tabPosition=left;html=1;boundedLbl=1;labelInHeader=1;container=1;collapsible=0;recursiveResize=0;whiteSpace=wrap;" parent="1" vertex="1">
          <mxGeometry x="370" y="280" width="160" height="80" as="geometry" />
        </mxCell>
        <mxCell id="4PkOEW9MbShfaQD_qWlL-51" value="models" style="shape=folder;fontStyle=1;tabWidth=110;tabHeight=30;tabPosition=left;html=1;boundedLbl=1;labelInHeader=1;container=1;collapsible=0;recursiveResize=0;whiteSpace=wrap;" parent="1" vertex="1">
          <mxGeometry x="10" y="120" width="160" height="80" as="geometry" />
        </mxCell>
        <mxCell id="4PkOEW9MbShfaQD_qWlL-52" value="load_model" style="html=1;whiteSpace=wrap;" parent="4PkOEW9MbShfaQD_qWlL-51" vertex="1">
          <mxGeometry width="110" height="30" relative="1" as="geometry">
            <mxPoint x="25" y="40" as="offset" />
          </mxGeometry>
        </mxCell>
        <mxCell id="4PkOEW9MbShfaQD_qWlL-53" value="callbacks" style="shape=folder;fontStyle=1;tabWidth=110;tabHeight=30;tabPosition=left;html=1;boundedLbl=1;labelInHeader=1;container=1;collapsible=0;recursiveResize=0;whiteSpace=wrap;" parent="1" vertex="1">
          <mxGeometry x="550" y="120" width="160" height="80" as="geometry" />
        </mxCell>
        <mxCell id="4PkOEW9MbShfaQD_qWlL-54" value="ModelCheckpoint" style="html=1;whiteSpace=wrap;" parent="4PkOEW9MbShfaQD_qWlL-53" vertex="1">
          <mxGeometry width="110" height="30" relative="1" as="geometry">
            <mxPoint x="25" y="40" as="offset" />
          </mxGeometry>
        </mxCell>
        <mxCell id="4PkOEW9MbShfaQD_qWlL-55" value="utils" style="shape=folder;fontStyle=1;tabWidth=110;tabHeight=30;tabPosition=left;html=1;boundedLbl=1;labelInHeader=1;container=1;collapsible=0;recursiveResize=0;whiteSpace=wrap;" parent="1" vertex="1">
          <mxGeometry x="550" y="210" width="160" height="80" as="geometry" />
        </mxCell>
        <mxCell id="4PkOEW9MbShfaQD_qWlL-56" value="&lt;font style=&quot;font-size: 10px;&quot;&gt;register_keras_serializable&lt;/font&gt;" style="html=1;whiteSpace=wrap;" parent="4PkOEW9MbShfaQD_qWlL-55" vertex="1">
          <mxGeometry width="130" height="30" relative="1" as="geometry">
            <mxPoint x="15" y="40" as="offset" />
          </mxGeometry>
        </mxCell>
        <mxCell id="4PkOEW9MbShfaQD_qWlL-58" value="optimizers" style="shape=folder;fontStyle=1;tabWidth=110;tabHeight=30;tabPosition=left;html=1;boundedLbl=1;labelInHeader=1;container=1;collapsible=0;recursiveResize=0;whiteSpace=wrap;" parent="1" vertex="1">
          <mxGeometry x="10" y="210" width="160" height="80" as="geometry" />
        </mxCell>
        <mxCell id="4PkOEW9MbShfaQD_qWlL-59" value="Adam" style="html=1;whiteSpace=wrap;" parent="4PkOEW9MbShfaQD_qWlL-58" vertex="1">
          <mxGeometry width="110" height="30" relative="1" as="geometry">
            <mxPoint x="25" y="40" as="offset" />
          </mxGeometry>
        </mxCell>
        <mxCell id="4PkOEW9MbShfaQD_qWlL-78" style="edgeStyle=orthogonalEdgeStyle;rounded=0;orthogonalLoop=1;jettySize=auto;html=1;exitX=0;exitY=0;exitDx=0;exitDy=97.5;exitPerimeter=0;entryX=1;entryY=0.5;entryDx=0;entryDy=0;dashed=1;" parent="1" source="4PkOEW9MbShfaQD_qWlL-60" target="4PkOEW9MbShfaQD_qWlL-59" edge="1">
          <mxGeometry relative="1" as="geometry" />
        </mxCell>
        <mxCell id="4PkOEW9MbShfaQD_qWlL-80" style="edgeStyle=orthogonalEdgeStyle;rounded=0;orthogonalLoop=1;jettySize=auto;html=1;exitX=0;exitY=0;exitDx=180;exitDy=97.5;exitPerimeter=0;entryX=0;entryY=0.5;entryDx=0;entryDy=0;dashed=1;" parent="1" source="4PkOEW9MbShfaQD_qWlL-60" target="4PkOEW9MbShfaQD_qWlL-56" edge="1">
          <mxGeometry relative="1" as="geometry" />
        </mxCell>
        <mxCell id="4PkOEW9MbShfaQD_qWlL-81" style="edgeStyle=orthogonalEdgeStyle;rounded=0;orthogonalLoop=1;jettySize=auto;html=1;exitX=0;exitY=0;exitDx=180;exitDy=52.5;exitPerimeter=0;entryX=0;entryY=0.5;entryDx=0;entryDy=0;dashed=1;" parent="1" source="4PkOEW9MbShfaQD_qWlL-60" target="4PkOEW9MbShfaQD_qWlL-54" edge="1">
          <mxGeometry relative="1" as="geometry" />
        </mxCell>
        <mxCell id="4PkOEW9MbShfaQD_qWlL-82" style="edgeStyle=orthogonalEdgeStyle;rounded=0;orthogonalLoop=1;jettySize=auto;html=1;exitX=0;exitY=0;exitDx=0;exitDy=52.5;exitPerimeter=0;entryX=1;entryY=0.5;entryDx=0;entryDy=0;dashed=1;" parent="1" source="4PkOEW9MbShfaQD_qWlL-60" target="4PkOEW9MbShfaQD_qWlL-52" edge="1">
          <mxGeometry relative="1" as="geometry" />
        </mxCell>
        <mxCell id="4PkOEW9MbShfaQD_qWlL-60" value="keras" style="shape=folder;fontStyle=1;tabWidth=110;tabHeight=30;tabPosition=left;html=1;boundedLbl=1;labelInHeader=1;container=1;collapsible=0;recursiveResize=0;whiteSpace=wrap;" parent="1" vertex="1">
          <mxGeometry x="280" y="120" width="180" height="120" as="geometry" />
        </mxCell>
        <mxCell id="4PkOEW9MbShfaQD_qWlL-61" value="layers" style="html=1;whiteSpace=wrap;" parent="4PkOEW9MbShfaQD_qWlL-60" vertex="1">
          <mxGeometry width="110" height="30" relative="1" as="geometry">
            <mxPoint x="20" y="40" as="offset" />
          </mxGeometry>
        </mxCell>
        <mxCell id="4PkOEW9MbShfaQD_qWlL-62" value="models" style="html=1;whiteSpace=wrap;" parent="4PkOEW9MbShfaQD_qWlL-60" vertex="1">
          <mxGeometry x="20" y="80" width="110" height="30" as="geometry" />
        </mxCell>
        <mxCell id="4PkOEW9MbShfaQD_qWlL-69" value="&lt;font style=&quot;font-size: 10px;&quot;&gt;&amp;lt;&amp;lt; import &amp;gt;&amp;gt;&lt;/font&gt;" style="text;html=1;align=center;verticalAlign=middle;whiteSpace=wrap;rounded=0;fontSize=10;" parent="1" vertex="1">
          <mxGeometry x="470" y="200" width="60" height="10" as="geometry" />
        </mxCell>
        <mxCell id="4PkOEW9MbShfaQD_qWlL-73" value="&lt;font style=&quot;font-size: 10px;&quot;&gt;&amp;lt;&amp;lt; import &amp;gt;&amp;gt;&lt;/font&gt;" style="text;html=1;align=center;verticalAlign=middle;whiteSpace=wrap;rounded=0;fontSize=10;" parent="1" vertex="1">
          <mxGeometry x="210" y="160" width="60" height="10" as="geometry" />
        </mxCell>
        <mxCell id="4PkOEW9MbShfaQD_qWlL-74" value="&lt;font style=&quot;font-size: 10px;&quot;&gt;&amp;lt;&amp;lt; import &amp;gt;&amp;gt;&lt;/font&gt;" style="text;html=1;align=center;verticalAlign=middle;whiteSpace=wrap;rounded=0;fontSize=10;" parent="1" vertex="1">
          <mxGeometry x="210" y="200" width="60" height="10" as="geometry" />
        </mxCell>
        <mxCell id="4PkOEW9MbShfaQD_qWlL-75" value="&lt;font style=&quot;font-size: 10px;&quot;&gt;&amp;lt;&amp;lt; import &amp;gt;&amp;gt;&lt;/font&gt;" style="text;html=1;align=center;verticalAlign=middle;whiteSpace=wrap;rounded=0;fontSize=10;" parent="1" vertex="1">
          <mxGeometry x="470" y="160" width="60" height="10" as="geometry" />
        </mxCell>
        <mxCell id="4PkOEW9MbShfaQD_qWlL-83" style="edgeStyle=orthogonalEdgeStyle;rounded=0;orthogonalLoop=1;jettySize=auto;html=1;exitX=0;exitY=0;exitDx=55;exitDy=0;exitPerimeter=0;entryX=0.75;entryY=1;entryDx=0;entryDy=0;entryPerimeter=0;dashed=1;" parent="1" source="4PkOEW9MbShfaQD_qWlL-47" target="4PkOEW9MbShfaQD_qWlL-60" edge="1">
          <mxGeometry relative="1" as="geometry" />
        </mxCell>
        <mxCell id="4PkOEW9MbShfaQD_qWlL-84" value="&lt;font style=&quot;font-size: 10px;&quot;&gt;&amp;lt;&amp;lt; import &amp;gt;&amp;gt;&lt;/font&gt;" style="text;html=1;align=center;verticalAlign=middle;whiteSpace=wrap;rounded=0;fontSize=10;" parent="1" vertex="1">
          <mxGeometry x="350" y="250" width="60" height="10" as="geometry" />
        </mxCell>
      </root>
    </mxGraphModel>
  </diagram>
</mxfile>
